<?xml version="1.0" encoding="UTF-8"?>
<svg xmlns="http://www.w3.org/2000/svg" xmlns:xlink="http://www.w3.org/1999/xlink" viewBox="0 0 4500 2254.31">
  <defs>
    <style>
      .cls-1 {
        fill: none;
      }

      .cls-2, .cls-3, .cls-4 {
        fill: #f7f6f0;
      }

      .cls-2, .cls-4, .cls-5, .cls-6 {
        mix-blend-mode: screen;
      }

      .cls-2, .cls-6 {
        opacity: .76;
      }

      .cls-7 {
        fill: url(#linear-gradient);
      }

      .cls-8 {
        fill: #fff;
      }

      .cls-9 {
        fill: #8f9192;
      }

      .cls-10 {
        fill: #aaacac;
      }

      .cls-11 {
        fill: #3d4042;
      }

      .cls-12 {
        fill: #5e6163;
      }

      .cls-13 {
        clip-path: url(#clippath-1);
      }

      .cls-14 {
        fill: url(#radial-gradient-20);
      }

      .cls-15 {
        fill: url(#radial-gradient-21);
      }

      .cls-16 {
        fill: url(#radial-gradient-22);
      }

      .cls-17 {
        fill: url(#radial-gradient-10);
      }

      .cls-18 {
        fill: url(#radial-gradient-19);
      }

      .cls-19 {
        fill: url(#radial-gradient-17);
      }

      .cls-20 {
        fill: url(#radial-gradient-11);
      }

      .cls-21 {
        fill: url(#radial-gradient-16);
      }

      .cls-22 {
        fill: url(#radial-gradient-15);
      }

      .cls-23 {
        fill: url(#radial-gradient-12);
      }

      .cls-24 {
        fill: url(#radial-gradient-14);
      }

      .cls-25 {
        fill: url(#radial-gradient-13);
      }

      .cls-26 {
        fill: #db9990;
        opacity: .37;
      }

      .cls-26, .cls-27, .cls-28, .cls-29, .cls-30, .cls-31, .cls-32, .cls-33, .cls-34, .cls-35, .cls-36, .cls-37, .cls-38, .cls-39 {
        mix-blend-mode: multiply;
      }

      .cls-27 {
        fill: url(#linear-gradient-18);
      }

      .cls-27, .cls-28, .cls-29, .cls-30, .cls-31, .cls-36 {
        opacity: .49;
      }

      .cls-28 {
        fill: url(#linear-gradient-17);
      }

      .cls-29 {
        fill: #818586;
      }

      .cls-30 {
        fill: url(#linear-gradient-5);
      }

      .cls-31 {
        fill: url(#linear-gradient-8);
      }

      .cls-40 {
        fill: url(#radial-gradient-3);
      }

      .cls-41 {
        fill: url(#radial-gradient-9);
      }

      .cls-42 {
        fill: url(#radial-gradient-8);
      }

      .cls-43 {
        fill: url(#radial-gradient-7);
      }

      .cls-44 {
        fill: url(#radial-gradient-2);
      }

      .cls-45 {
        fill: url(#linear-gradient-9);
      }

      .cls-46 {
        fill: url(#linear-gradient-3);
      }

      .cls-47 {
        fill: url(#linear-gradient-4);
      }

      .cls-48 {
        fill: url(#linear-gradient-2);
      }

      .cls-49 {
        fill: url(#linear-gradient-6);
      }

      .cls-50 {
        fill: url(#linear-gradient-7);
      }

      .cls-51 {
        fill: url(#radial-gradient);
      }

      .cls-32 {
        fill: url(#radial-gradient-5);
      }

      .cls-32, .cls-33, .cls-34, .cls-37 {
        opacity: .38;
      }

      .cls-33 {
        fill: url(#radial-gradient-4);
      }

      .cls-34 {
        fill: url(#radial-gradient-6);
      }

      .cls-52 {
        fill: url(#linear-gradient-14);
      }

      .cls-53 {
        fill: url(#linear-gradient-15);
      }

      .cls-54 {
        fill: url(#linear-gradient-16);
      }

      .cls-55 {
        fill: url(#linear-gradient-13);
      }

      .cls-56 {
        fill: url(#linear-gradient-12);
      }

      .cls-57 {
        fill: url(#linear-gradient-10);
      }

      .cls-58 {
        fill: url(#linear-gradient-11);
      }

      .cls-59 {
        isolation: isolate;
      }

      .cls-35, .cls-39 {
        opacity: .3;
      }

      .cls-38 {
        opacity: .41;
      }

      .cls-39 {
        fill: url(#radial-gradient-18);
      }
    </style>
    <linearGradient id="linear-gradient" x1="2276.78" y1="-89.63" x2="2225.09" y2="2258.68" gradientUnits="userSpaceOnUse">
      <stop offset="0" stop-color="#32afe4"/>
      <stop offset="1" stop-color="#223f77"/>
    </linearGradient>
    <linearGradient id="linear-gradient-2" x1="3928.36" y1="570.08" x2="4071.05" y2="-305.75" gradientUnits="userSpaceOnUse">
      <stop offset="0" stop-color="#52caf5"/>
      <stop offset="1" stop-color="#164996"/>
    </linearGradient>
    <linearGradient id="linear-gradient-3" x1="1821.73" y1="1033.3" x2="700.07" y2="2362.97" xlink:href="#linear-gradient-2"/>
    <radialGradient id="radial-gradient" cx="411.33" cy="606.19" fx="411.33" fy="606.19" r="282.37" gradientUnits="userSpaceOnUse">
      <stop offset="0" stop-color="#000"/>
      <stop offset="0" stop-color="#fff"/>
      <stop offset="0" stop-color="#77d1f0"/>
      <stop offset=".16" stop-color="#70caea"/>
      <stop offset=".39" stop-color="#60b7dc"/>
      <stop offset=".67" stop-color="#4498c5"/>
      <stop offset=".97" stop-color="#1d6da5"/>
      <stop offset="1" stop-color="#1a69a2"/>
    </radialGradient>
    <radialGradient id="radial-gradient-2" cx="471.49" cy="641.45" fx="471.49" fy="641.45" r="89.03" xlink:href="#radial-gradient"/>
    <radialGradient id="radial-gradient-3" cx="532.69" cy="737.4" fx="532.69" fy="737.4" r="93.89" xlink:href="#radial-gradient"/>
    <radialGradient id="radial-gradient-4" cx="468.9" cy="785.63" fx="468.9" fy="785.63" r="79.93" xlink:href="#radial-gradient"/>
    <radialGradient id="radial-gradient-5" cx="453.34" cy="746.74" fx="453.34" fy="746.74" r="75.29" xlink:href="#radial-gradient"/>
    <radialGradient id="radial-gradient-6" cx="375.02" cy="728.58" fx="375.02" fy="728.58" r="81.56" xlink:href="#radial-gradient"/>
    <radialGradient id="radial-gradient-7" cx="561.91" cy="1413.46" fx="561.91" fy="1413.46" r="345.37" gradientTransform="translate(3220.69 350.8) rotate(51.55)" gradientUnits="userSpaceOnUse">
      <stop offset="0" stop-color="#ffd873"/>
      <stop offset=".22" stop-color="#fdce69"/>
      <stop offset=".59" stop-color="#fbb550"/>
      <stop offset=".99" stop-color="#f7932d"/>
    </radialGradient>
    <radialGradient id="radial-gradient-8" cx="530.73" cy="1412.91" fx="530.73" fy="1412.91" r="114.5" xlink:href="#radial-gradient-7"/>
    <radialGradient id="radial-gradient-9" cx="612.78" cy="1664.4" fx="612.78" fy="1664.4" r="121.78" xlink:href="#radial-gradient-7"/>
    <radialGradient id="radial-gradient-10" cx="2032.2" cy="454.96" fx="2032.2" fy="454.96" r="229.99" xlink:href="#radial-gradient"/>
    <radialGradient id="radial-gradient-11" cx="1921.81" cy="386.69" fx="1921.81" fy="386.69" r="369.26" xlink:href="#radial-gradient"/>
    <radialGradient id="radial-gradient-12" cx="1921.82" cy="386.69" fx="1921.82" fy="386.69" r="369.26" xlink:href="#radial-gradient"/>
    <radialGradient id="radial-gradient-13" cx="1921.82" cy="386.69" fx="1921.82" fy="386.69" r="369.26" xlink:href="#radial-gradient"/>
    <clipPath id="clippath-1">
      <rect class="cls-1" width="4500" height="2254.31"/>
    </clipPath>
    <linearGradient id="linear-gradient-4" x1="2479.38" y1="867.12" x2="1705.48" y2="1616.64" gradientUnits="userSpaceOnUse">
      <stop offset="0" stop-color="#dca988"/>
      <stop offset=".28" stop-color="#dba585"/>
      <stop offset=".53" stop-color="#d99a7c"/>
      <stop offset=".76" stop-color="#d7886d"/>
      <stop offset=".99" stop-color="#d36f58"/>
      <stop offset="1" stop-color="#d36e57"/>
    </linearGradient>
    <radialGradient id="radial-gradient-14" cx="1029.81" cy="2831.58" fx="1029.81" fy="2831.58" r="866.01" gradientUnits="userSpaceOnUse">
      <stop offset="0" stop-color="#00aedf"/>
      <stop offset="1" stop-color="#02495d"/>
    </radialGradient>
    <radialGradient id="radial-gradient-15" cx="1121.18" cy="2943.14" fx="1121.18" fy="2943.14" r="858.51" gradientTransform="translate(-228.46 -17.73) rotate(-3.59)" xlink:href="#radial-gradient-14"/>
    <radialGradient id="radial-gradient-16" cx="12570.98" cy="3132.41" fx="12570.98" fy="3132.41" r="221.65" gradientTransform="translate(12761.98 -3507.66) rotate(166.76) scale(1 -1)" xlink:href="#radial-gradient-14"/>
    <radialGradient id="radial-gradient-17" cx="1034.21" cy="2854.2" fx="1034.21" fy="2854.2" r="844.59" xlink:href="#radial-gradient-14"/>
    <linearGradient id="linear-gradient-5" x1="1992.27" y1="1230.5" x2="1631.86" y2="1592.95" xlink:href="#linear-gradient-4"/>
    <linearGradient id="linear-gradient-6" x1="13888.3" y1="791.08" x2="13999.73" y2="771.58" gradientTransform="translate(12941.03 9680.25) rotate(-141.19) scale(1 -1)" gradientUnits="userSpaceOnUse">
      <stop offset="0" stop-color="#ececeb"/>
      <stop offset="1" stop-color="#fff"/>
    </linearGradient>
    <linearGradient id="linear-gradient-7" x1="13850.89" y1="817.15" x2="14029.72" y2="817.15" gradientTransform="translate(12941.03 9680.25) rotate(-141.19) scale(1 -1)" gradientUnits="userSpaceOnUse">
      <stop offset="0" stop-color="#ececeb"/>
      <stop offset="1" stop-color="#c2c3c3"/>
    </linearGradient>
    <radialGradient id="radial-gradient-18" cx="12487.78" cy="2604.47" fx="12487.78" fy="2604.47" r="506.99" gradientTransform="translate(12761.98 -3507.66) rotate(166.76) scale(1 -1)" xlink:href="#radial-gradient-14"/>
    <radialGradient id="radial-gradient-19" cx="13489.49" cy="780.45" fx="13489.49" fy="780.45" r="284.06" gradientTransform="translate(14593.96 3250.17) rotate(-167.31) scale(1 -1)" xlink:href="#radial-gradient-14"/>
    <radialGradient id="radial-gradient-20" cx="398.16" cy="1247.5" fx="398.16" fy="1247.5" r="699.57" gradientUnits="userSpaceOnUse">
      <stop offset="0" stop-color="#e7c1a7"/>
      <stop offset=".24" stop-color="#e6bda3"/>
      <stop offset=".45" stop-color="#e3b299"/>
      <stop offset=".65" stop-color="#dfa087"/>
      <stop offset=".85" stop-color="#d9876f"/>
      <stop offset="1" stop-color="#d36e57"/>
    </radialGradient>
    <linearGradient id="linear-gradient-8" x1="1121.09" y1="1302.12" x2="722.83" y2="1702.64" xlink:href="#linear-gradient-4"/>
    <radialGradient id="radial-gradient-21" cx="13404.25" cy="666.81" fx="13404.25" fy="666.81" r="282.11" gradientTransform="translate(14593.96 3250.17) rotate(-167.31) scale(1 -1)" gradientUnits="userSpaceOnUse">
      <stop offset="0" stop-color="#dca988"/>
      <stop offset=".28" stop-color="#dba585"/>
      <stop offset=".53" stop-color="#d99a7c"/>
      <stop offset=".76" stop-color="#d7886d"/>
      <stop offset=".99" stop-color="#d36f58"/>
      <stop offset="1" stop-color="#d36e57"/>
    </radialGradient>
    <linearGradient id="linear-gradient-9" x1="13572.71" y1="1190.24" x2="13464.94" y2="842.07" gradientTransform="translate(14593.96 3250.17) rotate(-167.31) scale(1 -1)" xlink:href="#linear-gradient-4"/>
    <linearGradient id="linear-gradient-10" x1="13291.8" y1="619.92" x2="13573.34" y2="804" gradientTransform="translate(14593.96 3250.17) rotate(-167.31) scale(1 -1)" gradientUnits="userSpaceOnUse">
      <stop offset="0" stop-color="#67968e"/>
      <stop offset=".17" stop-color="#638f87"/>
      <stop offset=".4" stop-color="#587c76"/>
      <stop offset=".68" stop-color="#465d5a"/>
      <stop offset=".98" stop-color="#2e3234"/>
      <stop offset=".99" stop-color="#2e3133"/>
    </linearGradient>
    <linearGradient id="linear-gradient-11" x1="13284.84" y1="669.76" x2="13679.7" y2="669.76" gradientTransform="translate(14593.96 3250.17) rotate(-167.31) scale(1 -1)" gradientUnits="userSpaceOnUse">
      <stop offset="0" stop-color="#fff"/>
      <stop offset=".19" stop-color="#f8f8f8"/>
      <stop offset=".45" stop-color="#e5e6e6"/>
      <stop offset=".75" stop-color="#c6c8c8"/>
      <stop offset="1" stop-color="#a8abab"/>
    </linearGradient>
    <linearGradient id="linear-gradient-12" x1="12549.4" y1="2450.33" x2="12587.84" y2="2845.02" gradientTransform="translate(12761.98 -3507.66) rotate(166.76) scale(1 -1)" xlink:href="#linear-gradient-7"/>
    <radialGradient id="radial-gradient-22" cx="13404.25" cy="666.82" fx="13404.25" fy="666.82" r="282.1" xlink:href="#radial-gradient-21"/>
    <linearGradient id="linear-gradient-13" x1="2521.91" y1="911.03" x2="1748.01" y2="1660.55" xlink:href="#linear-gradient-4"/>
    <linearGradient id="linear-gradient-14" x1="2527.32" y1="1527.29" x2="2694.3" y2="1647.1" gradientTransform="translate(-860.55 353.48) rotate(-16.94)" xlink:href="#linear-gradient-4"/>
    <linearGradient id="linear-gradient-15" x1="2760.79" y1="1585.81" x2="2820.33" y2="1725.85" gradientTransform="translate(-860.55 353.48) rotate(-16.94)" xlink:href="#linear-gradient-4"/>
    <linearGradient id="linear-gradient-16" x1="2734.21" y1="1605.55" x2="2793.75" y2="1745.59" gradientTransform="translate(-860.55 353.48) rotate(-16.94)" xlink:href="#linear-gradient-4"/>
    <linearGradient id="linear-gradient-17" x1="111.85" y1="1859.68" x2="619.43" y2="1859.68" xlink:href="#linear-gradient-4"/>
    <linearGradient id="linear-gradient-18" x1="648.04" y1="1805.95" x2="660.86" y2="1805.95" xlink:href="#linear-gradient-4"/>
  </defs>
  <g class="cls-59">
    <g id="Layer_2" data-name="Layer 2">
      <g id="Layer_1-2" data-name="Layer 1">
        <g>
          <rect class="cls-7" width="4500" height="2254.31"/>
          <g class="cls-5">
            <path class="cls-48" d="M4500,0V349.01c-28.04,11.66-58.81,18.09-91.08,18.09-8.62,0-17.12-.46-25.5-1.36-27.53-2.95-54.96,6.76-74.23,26.63-39.13,40.35-87.81,71.39-142.38,89.48-34.96,11.58-72.33,17.85-111.17,17.85-73.54,0-141.82-22.48-198.36-60.94-2.62-1.77-5.21-3.58-7.77-5.43-3.73-2.69-7.41-5.44-11.03-8.27-33.05-25.8-73.44-40.21-115.13-41.4-4.18-.13-8.38-.12-12.58,.03-23.42,.83-47.71-1.76-72.4-8.27-3.66-.97-7.29-2.02-10.87-3.16-57.33-18.12-105.06-57.63-133.44-109.43-.02-.04-.04-.09-.07-.13-8.44-15.43-15.17-31.95-19.92-49.32-22.03-80.51-2.74-157.17,41.4-213.38h984.53Z"/>
            <path class="cls-46" d="M2785.16,2251.74c-.11,.86-.24,1.72-.37,2.57H0V830.2c55.68-32.5,121.54-43.93,186.06-45.64,188.51-4.98,377.79,71.74,509.63,206.57,66.99,68.51,120.71,151.92,200.96,204.27,141.99,92.63,329.18,65.76,492.33,19.66,163.14-46.1,331.12-108.67,497.55-76.4,122.61,23.77,233.88,100.99,299.06,207.53,75.53,123.49,87.9,275.95,152.62,405.43,34.35,68.72,83.31,130.1,142.7,178.84,85.71,70.36,193.49,115.56,262.47,202.39,26.86,33.8,47.41,76.09,41.78,118.89Z"/>
          </g>
          <g>
            <path class="cls-51" d="M611.23,744.05c0,11.84-1.23,23.4-3.56,34.55-15.92,76.05-83.37,133.17-164.15,133.17-92.62,0-167.71-75.09-167.71-167.71,0-78.81,54.37-144.93,127.64-162.89,12.84-3.15,26.26-4.82,40.07-4.82,34.32,0,66.23,10.32,92.82,28.01,21.16,14.08,38.94,32.84,51.86,54.81,14.64,24.9,23.04,53.91,23.04,84.89Z"/>
            <g class="cls-37">
              <path class="cls-44" d="M536.33,604.35c-1.79,7.21-6.78,13.7-13.05,17.88-8.34,5.56-18.59,7.56-28.6,7.95-36.18,1.43-72.39-18.15-91.24-49.02,12.84-3.15,26.26-4.82,40.07-4.82,34.32,0,66.23,10.32,92.82,28.01Z"/>
            </g>
            <g class="cls-37">
              <path class="cls-40" d="M611.23,744.05c0,11.84-1.23,23.4-3.56,34.55-16.31,2.8-33.73,.67-47.36-8.56-17.56-11.89-26.2-33.59-28.26-54.7-1.15-11.73-.46-24.02,4.8-34.57,5.95-11.93,17.77-20.76,30.91-23.07,6.79-1.2,13.85-.63,20.42,1.47,14.64,24.9,23.04,53.91,23.04,84.89Z"/>
            </g>
            <path class="cls-33" d="M514.06,827.13c-1.11-11.54-9.9-20.26-19.82-25.3-21.91-11.12-49.98-10.58-72.42-1.4-4.55,1.86-10.84,4.39-15.68,7.95-7.22,3.64-12.42,10.86-12.77,19.44-.59,14.35,10.75,21.64,22.56,26.35,12.61,5.02,26.23,7.65,39.79,8,12.99,.34,27.06-1.08,39.04-6.39,11.06-4.91,20.53-15.9,19.31-28.65Z"/>
            <path class="cls-32" d="M466.22,682.61c-7.89-2.95-17.49-2.43-24.68,2.13-3.01,.6-5.91,2.11-8.53,4.81-11.79,12.18-1.33,31.35,10.07,39.23,12.45,8.6,32.38,8.63,41.52-4.87,10.58-15.62-3.23-35.64-18.38-41.31Z"/>
            <path class="cls-34" d="M360.08,701.1c-2.39-10.35-6.18-24.68-17.4-28.8-11.85-4.35-25.92,1.68-31.43,12.79-3.57,7.2-4.29,15.34-6.23,23.04-2.88,11.4-4.3,23.61-2.95,35.33,1.42,12.31,5.54,25.36,14.59,34.28,9.19,9.07,22.95,10.85,31.98,.51,8.8-10.07,11.38-23.84,13.01-36.69,1.7-13.44,1.5-27.21-1.56-40.45Z"/>
            <path class="cls-8" d="M288.97,814.74c-9.77-30.61-17.15-63.79-12.05-95.97,4.55-28.7,18.03-55.69,36.8-77.73,37.8-44.38,98.01-70.12,156.29-60.76,15.89,2.55,31.3,7.49,45.72,14.63,14.47,7.16,29.44,15.62,40.97,27,.05,.05,.13-.03,.08-.08-10.18-10.82-20.58-21.2-33.65-28.53-12.97-7.27-27.08-12.58-41.56-15.93-29.21-6.74-59.46-5.18-87.96,3.95-57.12,18.3-105.85,65.82-120.28,124.77-4.17,17.04-5.05,34.29-2.52,51.65,2.92,20.06,10.27,38.44,17.81,57.09,.08,.2,.41,.13,.34-.09h0Z"/>
            <path class="cls-8" d="M303.87,760.28c-1.73-20.28-1.13-41.18,5.51-60.61,3.18-9.3,8.05-18.58,17.42-22.88,9.72-4.45,21.81,.21,24.76,10.88,.15,.53,.98,.43,.97-.13-.16-9.03-7.53-15.26-16.28-16.03-10.67-.94-20.15,5.82-25.91,14.28-6.85,10.08-9.74,22.9-11.03,34.85-1.47,13.6-.35,26.82,4.2,39.68,.06,.17,.36,.16,.34-.05h0Z"/>
            <path class="cls-8" d="M409.1,581.11c-.13-.04-.26-.09-.39-.13-.71-.24-1.71,.15-2.05,.83-2.84,5.78,.6,10.85,4.58,15.04,5.69,6,11.59,11.9,18.18,16.91,13.78,10.48,32.36,14.55,49.36,15.84,.64,.05,.95-.98,.34-1.25-15.2-6.62-31.88-8.41-45.7-18.16-6.41-4.52-12.03-10.06-17.57-15.59-1.13-1.12-2.29-2.23-3.34-3.43-2.63-2.99-2.39-4.38-2.52-7.97-.03-.73,.03-1.79-.88-2.1h0Z"/>
            <path class="cls-8" d="M432.3,718.39c-4.17-10.94-2.64-25.96,8.95-31.63,5.37-2.62,11.38-2.7,17.21-2.34,6.15,.38,13.23,1.05,17.5,6.06,.59,.69,1.67-.05,1.46-.85-1.82-6.84-8.94-9.26-15.22-10.62-7.66-1.66-16.2-1.23-23.25,2.39-14.08,7.23-15.68,25.15-7.08,37.16,.14,.2,.53,.09,.43-.18h0Z"/>
            <path class="cls-8" d="M393.3,607.23c-.11,.07-.23,.14-.34,.21,.25,.14,.5,.28,.74,.42-.09-.27-.17-.55-.24-.83,.16,.39,.15,.2-.02-.55,.09,.27,.12,.24,.1-.11-.05,.19-.1,.38-.16,.57-.01,.05-.28,.31-.3,.17,0-.07,.48-.02,.6,.05-.33-.19,.64,.64,.29,.35-.02,.53,.02,.49,.14-.14-.17,.35-.23,.43-.17,.23,.13,.03-.46,.26-.04,.04,.22,0,.13,0-.27,0,.15-.03,.29-.02,.44,.04,.27,.22,.25,.19-.06-.1,.1,.07,.17,.17,.18,.28,.07,.22,.05,.15-.06-.22,.06,.18,.05,.37-.02,.54-.1,.45-.25,.31-.04,.11,.13-.13,.15-.07,.49-.2-.28,0-.2,0,.23,0-.08,.01-.15,0-.22-.04-.23-.1-.41-.28-.53-.53-.06-.14-.09-.3-.08-.45,.07-.35,.07-.33,0,.05-.07,.36-.06,.38,0,.08-1.33,2.17,.86,4.71,3.19,4.15,2.66-.64,3.84-3.42,3.11-5.94-.75-2.58-3.24-4.14-5.87-4.16-5.35-.04-9.35,5.63-6.24,10.39,3.12,4.77,10.37,3.12,11.71-2.23,1.21-4.82-3.41-9.76-8.33-8.21-2.54,.8-4.64,3.51-3.76,6.22,.47,1.45,1.83,2.44,3.35,2.48,1.45,.03,2.11-.87,2.83-2,.26-.4-.27-.97-.68-.68h0Z"/>
            <path class="cls-8" d="M407.23,622.85c.28,.22,.55,.47,.86,.65-.44-.44-.87-.87-1.31-1.31,.1,.19,.22,.36,.37,.51,.28,.43,.64,.76,1.1,1.01,.62,.33,1.29,.53,2,.53,.44,0,.87-.08,1.3-.16-1.03-.13-2.05-.27-3.08-.4,1,.57,2.14,.76,3.26,.45,1.06-.29,1.99-.99,2.54-1.94,.43-.73,.61-1.56,.63-2.4-.05-.36-.1-.72-.14-1.08-.14-.32-.27-.65-.41-.97-.21-.27-.42-.55-.63-.82-.37-.39-.8-.67-1.3-.84-.32-.18-.66-.28-1.02-.28-.36-.1-.72-.1-1.08,0-.37,0-.71,.09-1.02,.28-.5,.16-.94,.44-1.3,.84-.04,.04-.08,.08-.12,.11,.28-.21,.56-.43,.83-.64-.64,.43-1.26,.87-1.64,1.58-.15,.28-.35,.74-.44,1.04-.24,.73-.14,1.54,.01,2.27,.34-1.3,.69-2.59,1.03-3.89-.04,.04-.08,.08-.12,.11,.27-.21,.53-.41,.8-.62-.3,.23-.55,.31-.88,.68-.2,.26-.41,.53-.61,.79-.14,.34-.29,.68-.43,1.02,.85-.85,1.7-1.7,2.55-2.55-.03,0-.07,.02-.1,.02l.96-.13h-.06c-.32,.05-.64,.09-.95,.13-.29,.12-.57,.24-.86,.36-.24,.19-.48,.37-.73,.56-.35,.32-.6,.71-.74,1.15-.16,.28-.24,.58-.24,.9-.09,.32-.09,.64,0,.95,0,.32,.08,.62,.24,.9,.14,.44,.39,.83,.74,1.15h0Z"/>
            <path class="cls-8" d="M395.99,634.97c.44,.02,.84-.07,1.22-.27,.39-.13,.73-.35,1.02-.66,.31-.29,.53-.63,.66-1.02,.2-.38,.29-.79,.27-1.22-.04-.28-.08-.56-.11-.84-.15-.54-.42-1.01-.82-1.4-.21-.17-.43-.33-.64-.5-.5-.29-1.03-.43-1.6-.43-.44-.02-.85,.07-1.22,.27-.39,.13-.73,.35-1.02,.66-.31,.29-.53,.63-.66,1.02-.2,.38-.29,.79-.27,1.22,.04,.28,.08,.56,.11,.84,.15,.54,.42,1.01,.82,1.4,.21,.17,.43,.33,.64,.5,.5,.29,1.03,.43,1.6,.43h0Z"/>
            <path class="cls-8" d="M381.24,698.53l.1-.21c-1.07,.61-2.14,1.23-3.21,1.84,.03,0,.06,0,.09,0-.35-2.58-.7-5.16-1.05-7.74-2.07,.42-3.16,2.12-3.7,4-.88,3.08,1.58,6.22,4.74,6.22s5.58-3.14,4.74-6.22c-.51-1.89-1.64-3.57-3.68-4-1.66-.35-3.61,.22-4.45,1.81-.79,1.49-.72,3.59,.62,4.77,.02,.02,.05,.04,.07,.06-.32-1.2-.64-2.41-.96-3.62l-.08,.22c-.6,1.74,.54,3.69,2.14,4.36,1.59,.67,3.8,.14,4.62-1.51h0Z"/>
            <path class="cls-8" d="M378.19,718.97c-.26,0-.52,.02-.78,.07-.74,.06-.63,.11,.33,.14,.26,.94,.52,1.87,.79,2.81-.34,.23-.53,.24-.58,.04,.12,.52,.57,1.01,.48,1.77-.07,.62-.37,1.4-.94,1.73-.45,.26-.16,.28-.38-.13-.26-.47-.02-1.52,.14-2.01,.09-.27,.18-.68,.4-.88-.04,.03,.45-.29,.43-.25,0-.01,.16,.03,.16,.02-.08,.13-.24-.48-.18-.5-.03,.01-.43,.86-.5,.95-.32,.43-.75,.79-1.09,1.2-2.41,2.89,1.17,6.35,4.07,4.07,1.85-1.45,3.27-4.01,3.1-6.4-.19-2.57-2.2-4.52-4.71-4.86-5.29-.7-8.42,5.12-7.16,9.73,1.45,5.32,7.98,5.53,10.72,1.14,2.54-4.07,.73-11.63-5.04-11.21-2.92,.21-5.27,2.99-4.51,5.93,.81,3.1,5.28,5.25,7.66,2.44,1.82-2.15,.74-5.9-2.42-5.84h0Z"/>
            <path class="cls-8" d="M395.56,712.23s.03-.01,.04-.02c.29-.12,.59-.25,.88-.37,.43-.23,.77-.55,1.03-.95,.23-.23,.39-.5,.47-.81,.23-.44,.34-.91,.32-1.42-.04-.33-.09-.65-.13-.98-.12-.29-.25-.59-.37-.88-.23-.43-.55-.77-.95-1.03-.36-.32-.77-.54-1.25-.66-.01,0-.03-.01-.04-.02-.65-.18-1.31-.18-1.96,0-.63,.18-1.17,.49-1.63,.95-.19,.25-.38,.5-.58,.75-.33,.58-.5,1.2-.5,1.86-.02,.51,.09,.98,.32,1.42,.15,.46,.4,.85,.76,1.19,.46,.46,1,.77,1.63,.95,.65,.18,1.31,.18,1.96,0h0Z"/>
          </g>
          <g>
            <path class="cls-43" d="M2541.85,1957.37c-52.64,41.79-118.67,55.25-179.7,42.48-47.92-10.03-92.75-36.22-125.57-77.56-38.29-48.23-52.79-107.71-45.14-164.27,7.26-53.65,34.46-104.67,80.22-140.99,6.72-5.34,13.67-10.21,20.8-14.63,92.44-57.33,215.2-37.55,284.47,49.71,8.34,10.51,15.56,21.56,21.66,33,48.45,90.78,26.73,206-56.74,272.27Z"/>
            <g class="cls-36">
              <path class="cls-42" d="M2562.31,1701.38c-15.45,3.85-30.9,7.7-46.35,11.54-13.12,3.27-26.9,6.54-39.99,3.12-34.06-8.88-45.94-57.01-80.01-65.84-16.18-4.21-33.25,1.84-49.93,.74-19.53-1.28-38.03-13.11-47.39-30.3-3.1-5.67-5.15-11.88-6.18-18.26,92.44-57.33,215.2-37.55,284.47,49.71,8.34,10.51,15.56,21.56,21.66,33-9.46,9.35-23.25,13.04-36.28,16.28Z"/>
            </g>
            <g class="cls-36">
              <path class="cls-41" d="M2381.58,1990.63c-6.15,3.6-12.68,6.82-19.43,9.23-47.92-10.03-92.75-36.22-125.57-77.56-38.29-48.23-52.79-107.71-45.14-164.27,18.7-12.42,42.77-16.44,64.45-10.69,22.5,5.97,42.01,22.35,51.78,43.47,3.09,6.68,5.3,13.89,9.74,19.75,7.7,10.18,20.68,14.64,33.02,17.85,12.35,3.21,25.41,5.98,35.2,14.17,9.79,8.19,14.67,23.95,6.65,33.87-2.37,2.93-5.59,5.06-7.91,8.01-8.19,10.37-2.4,25.77,5.47,36.39,7.85,10.63,18.03,21.13,18.32,34.34,.33,15.5-13.19,27.6-26.58,35.44Z"/>
            </g>
            <g class="cls-6">
              <path class="cls-3" d="M2621.76,1818.5c-.09,.63-.18,1.25-.28,1.88-.07,.52-.16,1.03-.25,1.55-.05,.28-.09,.56-.13,.84s-.09,.56-.14,.83c-.12,.76-.25,1.52-.39,2.27-.02,.07-.04,.14-.05,.22-.06,.38-.13,.75-.21,1.13-.03,.12-.05,.25-.08,.37-.02,.08-.03,.16-.03,.23-.01,.02-.01,.03-.01,.05,0,.1-.03,.18-.05,.28h-.01c-.05,.26-.09,.51-.14,.76-.09,.5-.18,1.01-.29,1.52h-.01c-.02,.15-.06,.28-.09,.43-.17,.91-.38,1.84-.58,2.76-.01,.02-.01,.05-.02,.08-.12,.56-.24,1.12-.37,1.68,0,.03,0,.05-.02,.08-.13,.59-.27,1.18-.4,1.76-.07,.3-.14,.6-.21,.9-.15,.6-.3,1.2-.45,1.8-.04,.18-.09,.37-.14,.56-.1,.41-.2,.82-.31,1.24h0c-.07,.3-.13,.58-.21,.87,34.77,26.35,52.89,49.4,46.86,63.84-6.23,14.92-37.19,17.95-82.88,10.84-24.43-3.8-53.06-10.51-84.36-19.86-24.48-7.3-50.58-16.21-77.58-26.62-7.52-2.89-15.11-5.9-22.76-9.03h-.01s0-.01,0-.01c-2.83-1.16-5.64-2.33-8.48-3.51-67.77-28.3-126.76-60.04-167.97-88.81h-.01c-7.63-5.33-14.66-10.56-21.02-15.65h-.01c-1.99-1.61-3.92-3.18-5.79-4.76h0s0-.02,0-.02c-25.97-21.86-38.76-40.74-33.55-53.2,2.47-5.94,8.88-10.01,18.59-12.27h0c9.77-2.31,22.89-2.81,38.72-1.61h0c.16-.31,.33-.61,.49-.89,.14-.27,.29-.53,.44-.79,.38-.68,.78-1.35,1.17-2.03,.21-.36,.41-.71,.62-1.06,.37-.64,.74-1.27,1.13-1.9,.18-.31,.36-.61,.54-.91,0-.01,.01-.02,.02-.03,.34-.56,.67-1.11,1.02-1.66,.08-.12,.16-.25,.23-.37,.64-1.03,1.3-2.05,1.96-3.08,.36-.56,.73-1.12,1.1-1.68,.64-.97,1.28-1.93,1.93-2.89,.22-.32,.44-.63,.65-.95,.12-.16,.23-.33,.35-.49,0-.02,.02-.03,.03-.06,.21-.3,.42-.61,.64-.91,.21-.29,.42-.6,.64-.91,.5-.7,1-1.41,1.52-2.12-13.94-3.01-27.14-5.45-39.47-7.29-9.16-1.37-17.85-2.41-26-3.11-39.45-3.45-66.51,.99-75.42,14.31-.02,.02-.03,.02-.03,.04-.67,1-1.23,2.02-1.68,3.12-3.53,8.47-.57,19.24,7.96,31.68v.02h.02s.01,.02,.01,.02t.01,.03s.01,.01,.01,.01c15.17,22.13,47.98,49.53,93.21,78.46h.01c14.21,9.09,29.61,18.31,46.1,27.6h.01c40.87,22.99,88.26,46.22,139.74,67.93,1.79,.76,3.58,1.51,5.38,2.26,3.23,1.34,6.44,2.68,9.65,3.99h0c19.05,7.82,37.85,15.08,56.24,21.77,41.92,15.26,81.74,27.55,117.65,36.59h.01c70.25,17.64,125.64,22.79,152.9,13.12,1.13-.39,2.21-.82,3.24-1.27h0c1.1-.49,2.14-.99,3.13-1.54,5.21-2.82,8.83-6.46,10.7-10.96,10.37-24.79-34.95-69.47-112.75-117.47Z"/>
            </g>
            <path class="cls-3" d="M2215.84,1657.36c-8.02-2.83-16.54-4.08-24.91-5.58-8.67-1.55-17.35-3.02-26.08-4.18-16.96-2.25-34.76-3.48-51.59,.32-14.09,3.18-34.81,13.06-32.89,30.57,.94,8.53,6.87,15.33,12.25,21.58,5.29,6.14,10.93,11.94,16.75,17.57,24.68,23.9,52.47,44.42,81.35,62.93,30.72,19.69,62.82,37.36,95.84,52.88,34.51,16.22,69.51,31.4,105.22,44.77,2.27,.85,3.13-2.67,.99-3.58-60.74-25.62-120.42-53.74-176.8-88.05-28.2-17.16-55.43-36-80.62-57.38-11.7-9.93-22.69-20.54-33.31-31.6-5.5-5.73-14.03-12.92-14.27-21.46-.26-9.29,10.22-15.84,17.55-19.32,16.66-7.91,37.05-6.99,54.99-5.34,9.92,.91,19.79,2.33,29.63,3.83,8.53,1.3,17.11,3.11,25.75,3.01,.58,0,.65-.79,.13-.97h0Z"/>
            <path class="cls-3" d="M2651.64,1788.16c-.52,.04-1.04,.07-1.56,.11-1.15-.04-2.22,.2-3.21,.72-1.03,.34-1.93,.91-2.68,1.72-.43,.56-.87,1.12-1.3,1.69-.61,.96-.94,1.99-.99,3.1-.2,.74-.2,1.48,0,2.21,.05,1.11,.38,2.14,.99,3.1,.43,.56,.87,1.12,1.3,1.69,1.04,1.03,2.26,1.75,3.67,2.14l1.48,.46c1.53,.41,3.05,.41,4.58,0,.69-.29,1.37-.58,2.06-.87,1.29-.77,2.32-1.8,3.09-3.09,.63-.99,.97-2.06,1.02-3.2,.26-1.15,.21-2.29-.15-3.44-.27-1.12-.78-2.1-1.54-2.93-.61-.94-1.41-1.68-2.42-2.22-1.34-.78-2.79-1.17-4.35-1.18h0Z"/>
            <path class="cls-3" d="M2658.69,1758.8c.61,.04,1.21-.04,1.81-.22,.83-.2,1.56-.58,2.18-1.15,.7-.45,1.25-1.05,1.65-1.8,.47-.73,.72-1.53,.76-2.38,.19-.85,.15-1.7-.11-2.55-.3-1.08-.85-2.02-1.65-2.82-1.25-1.15-2.79-1.87-4.52-1.87-1.64,0-3.36,.71-4.52,1.87-1.22,1.22-1.8,2.83-1.87,4.52-.08,1.7,.75,3.3,1.87,4.52,1.13,1.23,2.79,1.79,4.42,1.87h0Z"/>
            <path class="cls-3" d="M2694.45,1833.08c1.16-1.46,4.88-1.85,6.45-.59,2.19,1.77,.24,5.56-2.14,6.08-6.32,1.38-6.59-10.63,.48-10.01,2.36,.21,4.81,2.7,3.23,5-.87,1.27-3.43,1.85-3.27-.41,.08-1.12,1.37-1.06,1.91-.48,.08,.09-.77-.03-1.08-.17-.68-.32-.83-.49-1.56-1.42-1.61-2.06-5.17-.79-5.73,1.51-1.63,6.76,6.33,9.22,11.36,6.87,5.4-2.53,5.5-9.35,1.26-13.06-4.95-4.33-13.19-2.5-14.69,4.26-1.37,6.19,3.55,12.76,10,12.55,7.18-.23,12.34-7.65,10.3-14.46-2.05-6.85-10.03-10.52-16.62-8.14-6.67,2.41-10.85,10.02-8.11,16.81,2.38,5.9,9.34,9.9,15.42,6.94,5.77-2.81,9.04-11.05,3.87-16.04-2.15-2.07-5.38-2.97-8.31-2.48-2.91,.48-4.75,2.86-5.65,5.57-.51,1.55,1.79,3.02,2.86,1.67h0Z"/>
            <path class="cls-3" d="M2691.19,1899.98c10.02,8.98,20.1,20.52,24.3,33.53,4.01,12.43,2.53,27.57-7.37,36.88-9.18,8.63-22.64,10.09-34.67,9.88-13.78-.24-27.6-2.37-41.23-4.26-60.55-8.4-120.44-22.58-178.59-41.43-16.46-5.33-32.91-10.63-49.23-16.37-16.25-5.72-32.81-10.51-48.77-17.05-1.42-.58-2.44,1.83-1.05,2.49,14.98,7.13,29.61,15.02,44.86,21.57,15.07,6.48,30.6,12.38,46.17,17.54,31.42,10.41,63.38,19.09,95.76,25.92,32.42,6.84,65.19,12.09,98.12,15.74,23.68,2.62,57.24,9.16,75.24-11.41,9.57-10.94,11.2-26.89,6.67-40.36-5.08-15.13-16.27-25.41-29.3-33.86-.71-.46-1.56,.61-.92,1.19h0Z"/>
            <path class="cls-3" d="M2295.04,1613.27c5.22,16.29,18.31,27.7,33.73,34.26,6.75,2.87,13.78,4.75,21.11,5.23,10.67,.7,21.36-.7,32.04-.12,11.93,.65,21.89,4.72,30.21,13.4,7.23,7.53,12.85,16.44,20.03,24.01,12.54,13.22,29.48,25.16,47.97,27.37,17.66,2.11,37.94-1.21,54.19-8.37,.73-.32,.21-1.53-.54-1.29-14.96,4.72-32.45,4.05-47.83,2.18-18.41-2.24-34.28-12.46-47.1-25.44-13.35-13.52-23.5-31.44-42.98-36.79-18.1-4.97-37.05,.83-55.31-2.87-18.56-3.76-35.47-15.37-45.05-31.77-.14-.24-.55-.08-.46,.19h0Z"/>
          </g>
          <g>
            <g>
              <path class="cls-17" d="M2229.22,515.27c0,66.48-53.89,120.37-120.37,120.37-2.02,0-4.03-.05-6.03-.15-12.27-.61-24.06-3.04-35.1-7.06-15.67-5.7-29.82-14.55-41.68-25.81-6.61-6.25-12.5-13.26-17.56-20.88-7.25-10.91-12.76-23.08-16.14-36.11-2.53-9.7-3.86-19.88-3.86-30.37,0-66.48,53.89-120.37,120.37-120.37,4.92,0,9.77,.3,14.54,.87,8.87,1.06,17.46,3.1,25.63,6,11.4,4.03,22.01,9.73,31.53,16.8,12.73,9.46,23.52,21.36,31.68,35.03,8.47,14.16,14.11,30.21,16.14,47.36,.56,4.7,.84,9.47,.84,14.31Z"/>
              <g class="cls-38">
                <path class="cls-20" d="M2149.02,401.76c-.02,.25-.03,.5-.05,.76-.57,6.14-3.8,11.66-6.96,16.95-8.34,13.92-16.82,27.76-25.44,41.51-27.57,43.99-57.84,88.38-101.66,116.22-2.14,1.36-4.41,2.86-6.41,4.56-7.25-10.91-12.76-23.08-16.14-36.11,7.2-2.77,14.15-6.95,20.63-11.06,11.27-7.15,22.54-14.38,32.74-23,33.45-28.24,53.08-69.06,72.92-108.08,1.31-2.57,2.91-5.27,4.77-7.73,8.87,1.06,17.46,3.1,25.63,6Z"/>
              </g>
              <g class="cls-38">
                <path class="cls-23" d="M2212.24,453.59c-3.28,16.92-14.44,32.92-25.18,47.14-11.24,14.91-22.49,29.82-33.73,44.73-9.22,12.23-18.49,24.51-29.38,35.27-17.48,17.29-38.87,30.4-56.23,47.7-15.67-5.7-29.82-14.55-41.68-25.81,.36-.09,.72-.17,1.09-.26,38.06-9.3,66.69-40.17,90.52-71.26,21.78-28.41,41.78-58.64,54.37-92.16,2.54-6.77,5.06-14,8.53-20.38,12.73,9.46,23.52,21.36,31.68,35.03Z"/>
              </g>
              <g class="cls-38">
                <path class="cls-25" d="M2229.22,515.27c0,66.48-53.89,120.37-120.37,120.37-2.02,0-4.03-.05-6.03-.15,9.19-5.36,17.88-12.12,26.06-18.72,19.55-15.77,39.31-31.75,54.43-51.82,7.29-9.67,13.4-20.17,20.08-30.28,7.72-11.68,16.18-22.83,24.99-33.72,.56,4.7,.84,9.47,.84,14.31Z"/>
              </g>
            </g>
            <path class="cls-3" d="M1996.98,473.03c-13.79,28.44-13.23,62.44-.78,91.28,12.52,28.98,32.89,56.03,63.75,66.46,15.06,5.09,32.38,6.26,47.77,1.9,.58-.17,.49-1.11-.15-1.08-13.72,.52-26.85-.82-39.97-5.19-12.96-4.32-25.07-11.22-35.1-20.53-11.23-10.43-19.93-23.97-27.21-37.37-7.48-13.77-12.36-28.81-13.77-44.45-1.54-17.1,.78-34.45,5.95-50.79,.09-.29-.37-.5-.5-.21h0Z"/>
            <path class="cls-3" d="M2008.55,584.23c.14,.13,.28,.26,.42,.39,.42,.39,1.07,.64,1.64,.43,6.65-2.4,12.15-7.7,17.44-12.23,6.47-5.55,12.72-11.38,18.93-17.22,12.27-11.53,24.2-23.38,34.4-36.83,.38-.5-.4-.98-.82-.63-14.31,11.99-27.41,25.31-41.1,37.98-6.6,6.11-13.24,12.23-19.99,18.18-.73,.65-12.48,8.51-10.93,9.93h0Z"/>
            <path class="cls-3" d="M1989.47,544.49c8.08,3.12,18.83-4.63,25.43-8.59,8.44-5.06,16.58-10.69,24.24-16.87,15.44-12.45,29.02-27.86,39.5-44.7,.22-.35-.31-.77-.58-.44-11.92,14.58-24.9,27.98-39.5,39.91-7.35,6.01-14.93,11.68-22.95,16.78-3.99,2.54-8.06,4.93-12.18,7.24-4.53,2.55-9.39,3.69-14.09,5.72-.46,.2-.24,.81,.12,.95h0Z"/>
            <path class="cls-3" d="M2038.43,398.03c21.22-12.52,45.16-19.23,69.8-19.48,24.54-.25,48.38,6.49,70.21,17.43,1.01,.51,1.73-.82,.86-1.48-40.01-30.37-101.94-26.84-141.03,3.27-.15,.12-.02,.37,.15,.26h0Z"/>
            <path class="cls-3" d="M2118.99,357.91c1.17,0,2.4-.51,3.22-1.34,.44-.41,.76-.9,.94-1.47,.29-.54,.42-1.13,.39-1.76-.05-1.18-.44-2.4-1.34-3.22-.89-.82-1.99-1.34-3.22-1.34-1.17,0-2.4,.51-3.22,1.34-.44,.41-.76,.9-.94,1.47-.29,.54-.42,1.13-.39,1.76,.05,1.18,.44,2.4,1.34,3.22,.89,.82,1.99,1.34,3.22,1.34h0Z"/>
            <path class="cls-3" d="M2149.92,357.09s.1-.05,.15-.08c.68,.52,1.37,1.04,2.05,1.56,.15-1.48-.54-.04-.16-.16-.06,.02-.38-.21-.14-.18-1.19-.16-1.97-.88-2.25-2.07-.49-2.04,2.13-3.8,3.77-2.34,1.44,1.28,.95,3.74-1.06,3.94-.76,.08-1.54-.14-1.99-.79-.4-.58-.53-1.66-.81-2.31-.19-.45-.4-.84-.48-1.32-.15-.85-1.14-1.23-1.88-1.07-3.6,.76-4.33,4.88-2.63,7.74,1.6,2.69,4.74,4.06,7.8,3.75,6.37-.65,9.42-7.45,5.78-12.69-3.72-5.36-12.37-3.75-14.1,2.54-.84,3.05,.39,6.32,2.81,8.27,2.51,2.02,6.44,2.52,8.83,.01,2.48-2.59,1.74-7.03-1.52-8.54-3.41-1.58-7.64,.68-7.66,4.57-.01,2.71,3.06,3.5,4.91,2.03,.63-.5,.95-1.08,.93-1.9-.03-1.14-1.52-1.89-2.35-.97h0Z"/>
            <path class="cls-3" d="M2136.39,335.38c.76-.74,1.96-1.69,3.07-.89,1.28,.92-.08,2.66-1.31,2.74-2.85,.2-3.58-4.62-1.06-5.6,2.35-.92,4.13,2.67,1.7,3.15-.38,.08-1.04-.15-1.12-.61-.06-.39,.29-.36,.3-.56-.01,.25,.23-.51-.11-.2,.02-.02-.04,.15-.06,.16-.37,.29-.8,.94-1.01,1.36-.65,1.3-.03,2.48,1.22,3,3.66,1.54,5.44-4.09,4.28-6.63-1.57-3.44-6.21-3.46-8.67-1-2.99,2.99-1.18,7.78,2.39,9.32,3.55,1.53,7.42-.61,8.64-4.14,2.84-8.18-9.06-12.82-13.39-5.8-2,3.24-1.7,7.59,1.09,10.27,2.62,2.52,7.1,3.13,9.67,.23,2.2-2.48,2.25-7.06-1.11-8.54-2.3-1.02-6.64,.21-5.94,3.37,.14,.65,.99,.81,1.43,.38h0Z"/>
          </g>
          <g class="cls-13">
            <g>
              <path class="cls-47" d="M2291.56,1010.98c3.13-8.16,4.49-19.73-3.88-23.9-8.22-4.1-16.76,3.45-22.08,10.24-13.12,16.79-26.24,33.58-39.37,50.37-.53-.63-1.18-1.17-1.93-1.56-3.47-1.78-6.07,.52-8.31,2.59-14.73,13.54-28.43,27.33-47.09,34.53-15.72,6.06-32.86,9.9-45.78,20.71-14.28,11.95-21.08,30.58-24.99,48.79-3.9,18.2-5.58,37.05-12.38,54.37-6.86,17.46-21.22,30.76-30.14,47.26-19.57,36.17-145.17,212.89-207.53,236.99-38.36-10.51-76.74-20.99-115.14-31.4-5.66-1.53-11.33-3.07-17-4.6-7.41-2.01-14.82-4.02-22.24-6.02l-7.16,7.59-84.56,89.65-48.74,51.67c7.69,1.57,15.42,3.09,23.16,4.5h0c37.81,6.93,76.09,11.68,114.4,11.94,8.96,.06,17.93-.15,26.9-.61,50.31,2.88,120.51-4.78,167.19-21.76,19.84-7.22,38.27-17.8,56.25-28.86,9.79-6.02,17.98-13.1,24.66-20.74,27.66-20.98,158.01-235.93,180.14-262.58,16.63-13.65,90.06-36.5,121.3-106.33,8.65-19.35,40.2-64.14,24.68-80.32,41.59-45.26-22.22-25.58-.39-82.51Z"/>
              <path class="cls-24" d="M1420.09,2564.79c-1.46,4.2-2.95,8.39-4.48,12.58-2.82,7.71-5.76,15.4-8.86,23.01-3.29,8.12-7.08,16.6-14.29,21.56-10.23,7.01-24.23,4.77-35.59-.2-29.28-12.81-48.72-40.11-63.15-69.23-2.75-5.54-5.32-11.16-7.73-16.74-6.96-16.06-13.19-32.4-18.93-48.94-12.82-36.95-23.14-74.82-33.43-112.6-13.88-50.98-31.55-141.31-46.19-181-2.77-7.51-5.44-13.21-7.94-16.48-2.28-2.97-4.15-5.97-5.65-8.99-.51-.99-.96-1.99-1.39-2.98-11.86-27.96,4.93-57.71,3.81-92.05-.01-.2-.01-.39-.02-.58-.36-11.6-.42-23.2-.12-34.81,.38-15.07,1.33-30.16,2.95-45.25l11.27-1.67,260.36-38.47c2.58,21.46,5.02,43.06,7.26,64.78,1.52,14.84,2.95,29.75,4.26,44.69,2.96,34.03,5.28,68.28,6.63,102.58,5.36,135.97-4.43,272.79-48.77,400.8Z"/>
              <path class="cls-22" d="M1070.45,2301.01c27.54-42.51,50.97-88.52,86.91-124.2,1.97-1.96,4.23-3.98,6.68-5.27,2.23-1.17,4.6-1.77,7.07-1.23,3.53,.76,6.12,3.65,8.37,6.46,3.5,4.35,6.81,8.86,9.92,13.5,13.71,20.47,23.48,43.57,28.57,67.68l-5.44-119.75-3-66.13-22.66-96.34-228.37-42.31c-29.57,27.84-43.73,67.34-53.89,109.2-8.98,36.95-14.85,75.73-25.39,109.99-2.78,9.01-5.72,18.22-8.72,27.58-8.78,27.32,150.64,196.9,199.94,120.84Z"/>
              <g class="cls-35">
                <path class="cls-21" d="M1216.36,2732.53c12.93-52.49,33.59-103.41,57.34-152.11,5.02-10.28,11.14-21.3,20.02-27.9,3.33-2.5,7.04-4.35,11.23-5.32,3.55-.84,7.7-1.2,9.8-4.17,3.24-4.59-1.1-10.45-3.55-15.49-5.83-12.05,1.66-28.51,14.57-32.02-3.97-11.14-13.97-18.87-20.58-28.68-4.26-6.34-6.54-15.11-4.91-22.19,.89-3.88,2.96-7.26,6.53-9.46,3.55-2.2,8.67-3.52,9.29-7.66,.39-2.56-1.3-4.93-2.88-6.97-13.37-17.31-25.68-35.6-34.33-55.67-10.33-23.96-15.24-49.84-20.08-75.47-4.01-21.28-8.02-42.56-12.03-63.83-2.97-15.82-5.98-31.78-5.46-47.87,.78-24.83,11.63-50.94,27.72-69.87-18.9,8.5-38.7,19.7-56.5,30.35-9.94,5.92-19.68,12.19-29.22,18.75-3.65,2.51-7.28,5.13-10.88,7.85-2.86,2.17-5.66,4.42-8.4,6.75,2.23-1.17,4.6-1.77,7.07-1.23,3.53,.76,6.12,3.65,8.37,6.46,15.77,20.59,37.63,136.87,54.14,197.48,10.29,37.77,20.61,75.65,33.43,112.6-1.84,20.21-5.58,40.4-10.22,60.08-11.55,48.95-28.6,96.67-36.21,146.39-1.99,13.01-3.33,26.09-4.27,39.22Z"/>
              </g>
              <path class="cls-19" d="M1235.55,2124.75c-11.89,12.25-22.56,26.02-32.22,41.05h0c-5.61,8.73-10.9,17.89-15.88,27.42h0c-68.4,130.6-81.99,330.83-158.03,464.84-2.2,3.86-4.43,7.71-6.68,11.55-4.18,7.08-8.48,14.1-12.89,21.02-4.71,7.39-9.98,15.04-17.98,18.6-11.32,5.04-24.69,.31-34.95-6.65-26.47-17.92-40.63-48.29-49.52-79.54-1.7-5.94-3.2-11.93-4.56-17.86-3.92-17.06-7.08-34.26-9.72-51.56-5.9-38.66-9.17-77.79-12.43-116.8-5.23-62.6-20.26-135.45-17.37-204.04,.67-16.13,2.73-33.23,5.6-50.36,4.63-27.64,11.39-55.35,17.89-79.11,7.49-27.31,14.63-49.4,17.84-60.18l14.29-8.3,152.65,15.84,99.25,10.3c-.23,3.6,1.86,7.36,5.43,11.17h0c17.74,18.98,71.98,39.57,59.3,52.61Z"/>
              <path class="cls-29" d="M1468.86,2163.99c-36.95-10.24-77.21-15.08-119.63-10.56-44.11,4.71-94.53,8.83-145.9,12.37h0c-9.8,.67-19.65,1.33-29.48,1.96-132.17,8.52-263.9,13.27-304.95,14.65,4.63-27.64,11.39-55.35,17.89-79.11,36.79-10.29,127.61-35.76,184.79-52.63,28.22-8.33,48.24-14.57,49.54-15.84,.98-.97,22.15,.15,55.02,2.52,69.86,5.03,192.51,15.72,286.09,24.07,2.96,34.03,5.28,68.28,6.63,102.58Z"/>
              <path class="cls-30" d="M1732.95,1459.96c-2.28,20.56-12.16,94.44-42.12,154.72-38.31-.26-76.59-5.01-114.4-11.93h0s25.58-56.18,25.58-56.18l84.56-89.65,29.4-1.56c5.67,1.54,11.34,3.07,17,4.6Z"/>
              <path class="cls-49" d="M1293.19,1333.79l117.3,300.15c17.35-5.07,35.03-7.3,52.89-7.84h.01c46.28-1.44,93.89,8.36,140.73,9.2,11.4,.2,23.38-.29,33.23-6.02,8.51-4.95,14.46-13.25,19.95-21.44,11.75-17.53,22.62-35.65,32.55-54.3,16.36-30.7,30.16-62.79,41.18-95.79,3.03-9.08,4.68-21.48-3.72-26.05-3.92-2.14-8.67-1.58-13.1-1.09-49.63,5.64-100.83-3.29-145.61-25.42-35.84-17.7-166.04-117.78-275.42-71.41Z"/>
              <path class="cls-50" d="M1462.98,1565.16s19.28,37.53,.42,60.94c46.28-1.43,93.89,8.37,140.73,9.22,11.4,.2,23.38-.29,33.23-6.02,8.51-4.95,14.46-13.25,19.95-21.44,11.75-17.53,22.62-35.65,32.55-54.3,0,0-115.81,36.86-226.88,11.6Z"/>
              <path class="cls-39" d="M904.62,2042.6c103.75,24.04,194.65,31.62,271.65,30.14,11.36-.21,22.42-.62,33.16-1.22,128.15-7,212.88-38.65,248.54-54.78-2.23-21.72-4.67-43.33-7.25-64.78l-260.36,38.47-3.46-14.71-228.37-42.31c-29.57,27.84-43.73,67.34-53.89,109.2Z"/>
              <path class="cls-18" d="M1431.64,865.74c29.8-22.78,34.31-65.9,30.02-103.16-6.15-53.43-27.66-108.4-71.93-138.95,26.61,37.32,32.52,88.47,15.13,130.87-9.44-46.85-42.51-88.3-86.09-107.91,6.92,30.29,5.98,62.34-2.72,92.16,2.8-34.89-18.35-70.44-50.34-84.64,10.3,22.33,8.67,49.75-4.2,70.7-14.84,24.16-42.01,37.94-69.05,46.48-27.04,8.55-55.45,13.17-81.2,25.05-25.75,11.88-49.45,33.17-54.32,61.11-3.66-24.34-19.24-46.59-40.86-58.35,10.56,16.25,17.46,34.86,20.03,54.06-8.79-13.1-27.42-18.51-41.86-12.16,14.66,10.82,27.29,24.37,37.06,39.75-26.62,9.21-37.37,40.61-42.62,68.29-8.99,47.48-11.76,98.71,9.51,142.1,22.15,45.19,67.23,75.04,113.95,93.75l319.49-319.16Z"/>
              <path class="cls-10" d="M815.86,1759.22c-17.1,1.82-34-3.89-50.25-9.51-41.04-14.2-83.32-29.12-115.41-58.38-10.31-9.4-20.01-23.72-14.12-36.37,6.29-13.51,24.85-14.36,39.71-13.2,0,0,141.07,6.38,140.66,116.88l-.58,.58Z"/>
              <path class="cls-14" d="M959.73,1557.18c-19.89,21.5-40.15,42.77-60.95,63.46-13.91,13.86-28.06,27.45-42.5,40.7-29.28,26.89,13.93,9.93-18.15,33.12-1.57,1.14-3.16,2.27-4.74,3.39-12.64,8.91-26.14,16.66-38.64,25.65-3.75,2.69-14.57,9.39-28.12,17.58-30.3,18.33-74.22,44.12-83.13,49.36-7.4,4.35-14.95,8.49-22.64,12.39-4.23,2.16-8.51,4.25-12.82,6.25-9.39,4.38-18.95,8.39-28.61,11.96-5.23,1.95-10.5,3.77-15.79,5.45-49.69,15.83-101.51,24.7-153.31,30.02-15.03,1.54-29.05,2.78-42.13,3.74,0,0-67.22,5.76-106.87,1.95-28.83-2.77-64.46,24.54-83.82,32.53-1.87,1.21-3.92,2.14-6.18,2.67-17.64,4.18-60.71-7.04-79.59-9.91-12.71-1.93-21.52-9.65-19.63-13.99,.21-.49,.55-.93,1.04-1.32-8.05-.72-16.08-1.63-24.08-2.78-4.78-.68-9.84-1.58-13.42-4.82-3.57-3.25-4.65-9.68-.91-12.72,1.57-1.27,3.63-1.72,5.61-2.08,10.86-1.95,21.93-2.22,32.97-2.33-15.03-.16-30-4.41-42.85-12.2-3.95-2.4-8.21-6.8-6.2-10.96,1.13-2.35,3.84-3.42,6.35-4.11,6.33-1.74,25.32-1.42,37.33-.45-13.98-1.82-34.81-5.52-32.76-11.06,2.72-7.38,11.46-10.35,19.24-11.45,7.53-1.06,58.62,5.19,65.84,5.04,14.71-.3,36.13,.75,50.84,.45-11.77-9.93-27.54-13.32-42.53-16.86-14.99-3.55-30.73-8.08-41.13-19.43-1.08-1.17-2.1-2.99-1.07-4.21,.57-.67,1.54-.81,2.42-.89,23.42-2.14,47.14-.97,70.24,3.48,6.18,1.2,12.35,2.63,18.26,4.8,16.93,6.22,64.87,36.72,85.6,38.06,93.08-24.42,253.01-58.52,294.56-76.61,7.92-3.45,23.79-19.68,41.69-39.88,32.88-37.12,72.59-87.63,82.23-96.72,.22-.28-18.58,40.38,7.22,13.16,11.47-12.11,23.07-24.1,34.7-36.06l7.32-7.53c19.9-20.47,39.8-40.94,59.7-61.42l129.41,54.58Z"/>
              <path class="cls-31" d="M898.78,1620.64c-13.91,13.86-28.06,27.45-42.5,40.7-29.28,26.89,13.93,9.93-18.15,33.12-1.57,1.14-3.16,2.27-4.74,3.39-12.64,8.91-26.14,16.66-38.64,25.65-3.75,2.69-14.57,9.39-28.12,17.58-65.15-35.93-104.62-47.28-127.48-49.91,32.88-37.12,72.59-87.63,82.23-96.72,.22-.28-18.58,40.38,7.22,13.16,11.47-12.11,23.07-24.1,34.7-36.06,41.61,13.67,135.09,47.62,135.09,47.62,0,0,.14,.51,.39,1.47Z"/>
              <path class="cls-8" d="M788.96,1705.11c13.8,15.43,23.9,33.77,27.43,54.08,23.78-9.24,36.71-34.22,54.3-52.69,10.05-10.55,21.9-19.16,34.04-27.28,3.24-2.17,6.5-4.3,9.76-6.44,13.75-9,27.85-18.13,43.7-22.5,.57-.18,1.17-.34,1.76-.49,16.54-4.15,35.67-2.06,48.1,9.62l-11.21-31.23,93.86-315.7c-107.64-1.72-196.53,46.47-198.94,48-50.87,31.95-84.39,75.41-119.75,125.32-31.37,44.28-88.38,110.8-132.12,162.76,46.58-11.28,83.5,9.29,114.04,27.75,12.9,7.8,24.97,17.52,35.04,28.79Z"/>
              <path class="cls-8" d="M903,2042.23c91.44,9.7-27.46,41.97,64.26,35.22,46.8-3.45,154.91,70.9,201.36,64.11,109.62-16.01,221.69-30.79,301.75,0,8.53,3.28,2.13-318.47,4.35-355.5,6.74-112.52,6.19-133.45,7.07-200.36,.02-1.5,.03-3,.03-4.52-.15-194.07-190.85-330.94-375.56-271.38l-9.36,3.02c-7.78-1.4-116.09-1.34-154.57,63.57-3.9,6.59-8.76,12.66-11.34,19.86-3.04,8.47-3.81,17.54-5.42,26.4-5.8,31.99-22.41,60.84-38.73,88.94,6.89,6.61,13.11,13.79,18.7,21.44,11.24,15.39,19.91,32.66,26.3,50.85,5.86,16.66,9.82,34.07,12.1,51.51,6.02,45.93,1.42,92.54-3.78,138.58-10.12,89.71-22.51,179.18-37.16,268.27Z"/>
              <path class="cls-15" d="M1417.39,1024.36c18.79,45.39,2.26,102.73-37.81,131.15-10.81-6.75-24.78-3.27-37.1,0-48.42,12.82-98.6,18.99-148.68,18.29-17.2-.24-35.16-1.51-49.95-10.31-18.63-11.09-28.86-32.11-35.68-52.69-16.74-50.47-19.05-105.64-6.58-157.34,3.57-14.81,8.41-29.52,16.67-42.32,17.36-26.94,47.79-42.51,78.16-52.74,47.06-15.85,100.09-21.39,145.56-1.43s79.5,70.72,68.38,119.11l7.03,48.29Z"/>
              <path class="cls-45" d="M1319.81,1338.59c3.45-4.55,4.59-10.45,3.07-15.96-10.05-36.57-16.43-67.36,3.42-100.78,14.34-24.15,34.92-43.88,52.19-66.03,7.36-9.44,14.39-19.95,13.31-32.57-.58-6.8-4.2-13.13-10.25-16.27-11.07-5.75-23.11,2.02-33.09,8.73-51.44,34.59-115.49,49.99-177.03,42.57-9.89-1.19-20-3.06-28.39-8.43-16-10.24-29.99-37.79-38.64-51.45,5.29,14.54,1.07,40.62-5.27,55.24-1.92,4.42-4.24,8.98-3.77,13.77,.4,4.09,2.78,7.67,4.91,11.18,23.02,37.81,23.43,88.3,1.02,126.47-2.56,4.35-5.46,8.77-5.91,13.8-.57,6.37,2.91,12.37,6.78,17.46,16.99,22.34,42.16,40.08,69.85,44.69,92.8,15.43,134.32-24.61,147.82-42.42Z"/>
              <path class="cls-9" d="M1093.45,956.01c-22.39,6.4-42.89,18.88-60.65,34.31-17.76,15.43-32.91,33.79-46.68,53.02-1.7,2.38-3.41,4.82-4.29,7.62-1.59,5.1-.21,10.6,1.49,15.63,2.98,8.79,6.96,17.21,11.84,25.04,12.68-17.53,31.99-29.87,50.7-40.49,19.25-10.93,45.86-19.51,59.56-26.19,9.21-4.49,19.06-7.51,28.02-12.51,1.4-.78-23.64-6.1-22.77-7.47,1.42-2.22,1.03-5.13,.41-7.68-1.86-7.64-5.31-14.84-10.07-21l-7.55-20.28Z"/>
              <path class="cls-57" d="M1118.74,1038.71s109.74-50.18,226.11-23.97c2.12,.48,4.19,.97,6.2,1.47,2.22-3.58,10.26-13.03,30.48-8.48,17.75,4,17.68,12.16,15.68,19.69,28.08,14.89,26.97,22.45,26.97,22.45,1.1-.7,58.52-6.6,54.25-38.64-2.66-20.05-38.52-46.83-80.45-56.28-174.34-39.25-226.32-15.76-279.26,83.75Z"/>
              <path class="cls-58" d="M1463.91,1007.96c2.91,.65,15.52,6.64,15.52,6.64,0,0-4.02-132.28-22.22-153.17,0,0-80.26-63.87-212.12-47.76-131.85,16.11-154.13,128.63-154.13,128.63l21.75,93.23c.73,3.13,4.41,4.51,7.01,2.63,23.36-16.92,116.59-80.92,179.87-73.31,72.82,8.76,164.32,43.1,164.32,43.1Z"/>
              <path class="cls-56" d="M918.38,1878.99c-10.12,89.71-35.64,181.01-50.28,270.09,91.44,9.7,196.86,1.12,288.58-5.63,46.8-3.45,136.33-24.06,247.17-17.9,53.31,2.96-73.84-9.58-29.56-39.41,7.58-5.1,75.08-6.04,69.36-13.16-20.09-25.02-121.95-21.6-198.51-18.52-8.22,.33-17.98-.53-22.15-7.61,7.34-7.62,14.69-15.25,22.05-22.87,1.88-1.96,3.88-4.11,4.22-6.82,.94-7.11-8.77-10.04-15.94-10.16-32.2-.52-64.44,.58-96.53,3.28-31.79,2.66-64.15,6.88-95.31,.02-6.76-1.48-14.56-4.71-15.7-11.53-.69-4.04,1.36-8.09,3.92-11.31,20.23-25.34,64.12-12.33,89.58-32.41,2.83-2.23,5.51-5.11,5.99-8.69,1.07-8.07-8.72-12.82-16.7-14.52-24.53-5.23-49.91-6.53-74.85-3.82-24.76,2.69-50.57,9.16-73.91,.51,.77-14.68,11.36-27.33,23.86-35.08,12.51-7.75,26.95-11.59,40.86-16.39,4.08-1.4,8.64-3.41,9.9-7.55,.89-2.87-.16-6.01-1.69-8.6-14.81-24.99-62.74-9.67-75.82-35.62-2.59-5.14-3.14-11.06-3.36-16.8-.91-23.18,2.67-46.28,3.55-69.46,.54-14.28-3.09-75.16-6.22-89.03-1.93-8.66-27.32,182.96-32.53,229Z"/>
              <path class="cls-16" d="M1095.98,1031.89s-21.72-32.37-51.32-16.13c-29.61,16.23,29.95,90.7,47.24,88.49,17.29-2.21,19.76-19.97,19.76-19.97l-15.68-52.38Z"/>
              <path class="cls-26" d="M2259,1148.75l1.6,2.64s-36.33,45.69-62.42,44.87c-26.1-.82-26.61-26.01-20.57-30.98,6.04-4.97,68.46-17.3,68.46-17.3l12.93,.77Z"/>
              <g>
                <path class="cls-12" d="M2124.7,1185.59s.01,.04,.01,.07c0,0,0,.01,0,.03,.01,.07,0,.16,.02,.23,.07,.8,.33,1.82,.74,2.99t.01,.03c1.04,2.94,3.08,6.79,5.65,10.34,3.33,4.58,7.54,8.65,11.61,9.5,6.24,1.32,13.19-.21,20.1-3.07,6.22-2.62,12.4-6.31,17.84-10.04,.56-.39,1.13-.77,1.7-1.18,.18-.12,.36-.24,.55-.37,.88-.62,1.77-1.23,2.65-1.84,1.26-.88,2.65-1.92,4.16-3,1.18-.86,2.37-1.72,3.54-2.6,5.15-3.82,10.22-7.72,15.25-11.66,0-.01,.02-.03,.02-.03,.02-.01,.03-.03,.03-.03,1.87-1.46,3.03-2.36,3.03-2.36,2.91-2.28,5.8-4.56,8.71-6.82,1.75-1.38,3.53-2.74,5.3-4.1,1.19-.9,2.36-1.8,3.54-2.71,1.38-1.06,2.78-2.11,4.18-3.16,4.51-3.37,9.07-6.72,13.68-10,.33-.24,.68-.48,1.02-.72,.27-.19,.55-.39,.82-.58,.24-.17,.47-.33,.71-.51,7.29-5.17,14.7-10.23,22.2-15.19,.6-.4,1.22-.8,1.83-1.21,.09-.07,.18-.12,.27-.19,.94-.61,1.87-1.24,2.82-1.85,7.51-4.91,15.11-9.74,22.78-14.46,.23-.15,.45-.29,.68-.42,.26-.16,.5-.3,.75-.46,.75-.46,1.51-.93,2.26-1.39,6.34-3.9,12.73-7.75,19.15-11.56,3.69-2.19,7.36-4.35,11.06-6.5,.41-.24,.83-.47,1.23-.71,9.61-5.6,19.27-11.12,28.96-16.58,25.1-14.11,51.8-29.1,66.99-50.13,14.73-20.44,15.95-51.7,4.11-67.92-.01-.02-.01-.04-.04-.06-6.52-8.92-17.09-8.19-29.66-11.6-18.07-4.88-40.98-2.39-61.3,6.65-17.46,7.77-32.48,19.85-44.67,32.93-24.38,26.21-37.82,55.86-58.45,83.28-.69,.92-1.39,1.83-2.09,2.75-9.83,12.94-20.42,25.66-31.53,38.18-1.77,1.98-3.55,3.97-5.36,5.95-9.18,10.12-18.72,20.1-28.48,29.93-3.43,3.48-6.92,6.92-10.41,10.34-3.7,3.63-7.41,7.22-11.17,10.8-.23,.22-.48,.45-.72,.65-2.59,2.27-5.82,4.09-9.11,5.77-8.35,4.25-17.13,7.5-16.95,14.58Zm201.82-174.17c1.1-12.59,11.68-26,27.83-33.45,19.63-9.05,40.6-6.13,49.14,6.24,.71,.99,1.33,2.08,1.85,3.22,6.94,15.02-4.67,35.14-25.92,44.93-21.24,9.79-44.07,5.56-51.01-9.45-1.66-3.61-2.25-7.51-1.9-11.49Z"/>
                <path class="cls-11" d="M2124.7,1185.59s.01,.04,.01,.07c0,0,0,.01,0,.03,.01,.07,0,.16,.02,.23,.13,1.02,.4,2,.84,2.91v.02c1.37,2.8,4.32,4.99,9.42,6.25,.34,.09,.7,.17,1.07,.25,6.24,1.32,16.13-1.49,23-4.33,6.25-2.62,12.41-6.31,17.84-10.04,.71-.48,1.42-.97,2.12-1.48,3.24-2.23,6.41-4.52,9.55-6.85,8.44-6.23,16.62-12.71,24.86-19.14,2.27-1.78,4.55-3.55,6.83-5.31,1.08-.86,2.19-1.7,3.3-2.55,0,0,.02-.01,.03-.01,.15-.12,.31-.24,.46-.35,.4-.31,.79-.62,1.2-.93,.05-.03,.08-.07,.11-.08,3.85-2.93,7.74-5.84,11.67-8.69,1.37-.99,2.73-1.99,4.1-2.95,1.56-1.14,3.14-2.27,4.72-3.38,4.06-2.88,8.15-5.73,12.28-8.53,.35-.24,.7-.47,1.04-.71,.82-.55,1.62-1.09,2.43-1.64,2.15-1.45,4.3-2.89,6.46-4.32,4.58-3.04,9.19-6.03,13.83-9h.01c1.07-.69,2.13-1.37,3.2-2.06,1.09-.68,2.16-1.35,3.24-2.04,.17-.11,.35-.21,.51-.32,3.23-2.01,6.44-4.03,9.68-6.01,3.33-2.05,6.66-4.07,10.03-6.09,3.45-2.09,6.91-4.16,10.39-6.22,2.36-1.41,4.74-2.79,7.1-4.19,11.18-6.55,22.43-12.99,33.73-19.34,25.1-14.12,51.79-29.12,66.98-50.14,12.71-17.62,15.05-37.63,7.88-53.21-.01-.02-.01-.04-.04-.06-1.14-2.51-2.52-4.88-4.18-7.13-6.52-8.91-16.65-15.76-29.24-19.16-18.07-4.9-40.98-2.39-61.3,6.65-17.46,7.75-32.49,19.85-44.67,32.93-24.38,26.2-37.84,55.85-58.45,83.28-2.32,3.07-4.66,6.14-7.07,9.17t-.02,.03c-2.62,3.36-5.29,6.7-8.02,10.02-1.27,1.55-2.55,3.11-3.85,4.66,0,.01-.02,.01-.02,.01-2.66,3.18-5.34,6.36-8.07,9.5h-.01s-.02,.01-.02,.03c-13.61,15.74-28.12,31.14-43.15,46.15-6.19,6.19-12.48,12.3-18.82,18.37-2.74,2.61-5.91,5.82-8.99,9.31-7.59,8.55-14.72,18.82-14.06,26.39Zm225.89-222.32c21.26-9.81,44.1-5.57,51.01,9.46,1.66,3.6,2.25,7.49,1.9,11.48-1.1,12.59-11.67,26-27.82,33.44-19.63,9.06-40.6,6.13-49.15-6.23-.71-1-1.33-2.07-1.85-3.22-6.91-15.02,4.68-35.14,25.92-44.93Z"/>
              </g>
              <path class="cls-55" d="M2154.44,1271.85c10.33,5.17,85.37-51.15,101.91-68.44,22.08-23.07,3.23-63.6-6.02-62.11-10.68,1.73-13.58,19.57-9.46,32.47,4.11,12.92-14.01,10.92-14.01,10.92,0,0-1.16,.9-3.03,2.36,0,0-.02,.01-.03,.03-6.3,4.86-20.55,15.81-26.16,19.51-1.83,1.21-46.66,63.51-43.21,65.25Z"/>
              <path class="cls-52" d="M2085.6,1209.06c6.87-17.49,8.58-36.5,12.53-54.87,3.95-18.37,10.82-37.17,25.2-49.24,13.01-10.92,30.27-14.81,46.09-20.95,18.79-7.29,32.59-21.21,47.43-34.89,2.26-2.09,4.88-4.41,8.37-2.62,1.9,.98,3.15,2.91,3.51,5.03,3.99,23.46-17.53,45.73-35.07,56.3-13.44,8.1-76.56,57.15-84.77,75.32,0,0-30.22,43.55-23.3,25.93Z"/>
              <path class="cls-53" d="M2275.41,1114.35c-8.86,6.03,.14,13.6,4.08,18.7,3.95,5.1,13.3,19.66,21.17,20.74s16.62-6.44,18.22-16.44c1.59-10-29.04-32.82-43.47-23.01Z"/>
              <path class="cls-54" d="M2267.39,1129.49c-12.3-1.56-9.01,12.85-8.4,20.1,.62,7.26,10.84,32.16,18.84,33.34,8,1.18,24.37-12.54,21.88-22.85-2.49-10.32-23.4-29.46-32.32-30.59Z"/>
              <path class="cls-28" d="M619.43,1821.04c-5.23,1.95-10.5,3.77-15.79,5.45-49.69,15.83-101.51,24.7-153.31,30.02-15.03,1.54-29.05,2.78-42.13,3.74,0,0-67.22,5.76-106.87,1.95-28.83-2.77-64.46,24.54-83.82,32.53-1.87,1.21-3.92,2.14-6.18,2.67-17.64,4.18-60.71-7.04-79.59-9.91-12.71-1.93-21.52-9.65-19.63-13.99l1.04-1.32s89.57,11.2,118.29-1.92c28.71-13.13,55.38-29.13,81.23-23.39,22.97,5.11,216.18,2.72,306.76-25.83Z"/>
              <path class="cls-27" d="M660.86,1802.83c-4.23,2.16-8.51,4.25-12.82,6.25,5.33-3.11,9.56-5.14,12.82-6.25Z"/>
            </g>
          </g>
          <g>
            <path class="cls-2" d="M1827.15,1058.75c2.83-5.69,4.44-12.01,6.52-18.01,2.23-6.42,4.87-12.61,7.73-18.77,5.44-11.7,12.15-22.88,20.17-33.01,7.99-10.09,17.17-19.3,27.29-27.26,5.05-3.98,10.39-7.62,15.93-10.88,3-1.76,6.1-3.3,9.14-4.97,3.66-2.02,4.86-3.93,5.91-8.01,.25-.98-.15-2.34-1.14-2.8-3.62-1.67-5.98-2.35-9.75-.65-3.12,1.41-6.1,3.4-9,5.22-5.89,3.68-11.54,7.71-16.98,12.03-11.07,8.78-20.88,18.97-29.46,30.17-8.45,11.02-15.58,23.02-21.09,35.77-5.11,11.81-10.67,27.07-9.2,40.12,.21,1.86,2.9,3.14,3.93,1.06h0Z"/>
            <path class="cls-2" d="M1969.04,914.31c11.28-.66,22.53-5.35,33.53-7.8,11.69-2.61,23.56-4.67,35.44-6.14,11.44-1.42,22.95-2.25,34.48-2.49,5.92-.12,11.85-.09,17.77,.1,6.17,.2,12.53,1.18,18.68,.63,5.89-.53,7.91-9.26,1.47-10.88-11.59-2.91-25.11-1.79-36.98-1.4-12.03,.4-24.02,1.48-35.95,3.11-12.05,1.66-23.94,4.04-35.7,7.14-11.2,2.95-24.6,5.59-34.17,12.43-2.1,1.5-1.63,5.48,1.44,5.31h0Z"/>
            <path class="cls-2" d="M2144.13,901.77c29.61,7.91,59.94,12.47,89.74,19.66,29.59,7.15,58.92,16.2,86.5,29.22,7.83,3.7,15.53,7.68,22.99,12.08,7.43,4.38,14.4,10.07,22.15,13.82,5.7,2.77,12.16-4.34,7.09-9.19-5.59-5.35-12.84-9.13-19.53-12.92-6.81-3.86-13.76-7.49-20.83-10.86-13.82-6.6-28.1-12.28-42.62-17.16-30.1-10.12-61.24-16.98-92.5-22.33-17.48-2.99-34.72-5.38-52.43-6.46-2.4-.15-2.83,3.54-.56,4.14h0Z"/>
            <path class="cls-2" d="M2448.15,1024.37c5.71,3.17,13.62,2.93,20,2.48,7.47-.53,14.89-1.49,22.22-3.01,14.34-2.97,28.28-7.62,41.64-13.62,13.47-6.06,26.14-13.69,37.87-22.66,5.79-4.43,11.35-9.13,16.61-14.17,2.61-2.5,5.5-5.03,7.75-7.88,2.29-2.9,3.4-6.82,4.59-10.29,.63-1.85-1.61-3.31-3.18-2.44-2.9,1.61-6.37,3.06-8.87,5.28-2.72,2.41-5.08,5.39-7.7,7.93-4.9,4.76-10.06,9.28-15.47,13.47-11.08,8.58-23.21,15.91-35.85,21.97-12.68,6.08-26.07,10.7-39.77,13.83-6.81,1.56-13.71,2.89-20.64,3.82-6.3,.85-13.62,1.2-19.22,4.29-.38,.21-.38,.79,0,1h0Z"/>
            <path class="cls-2" d="M1245.99,457.52c1.42-12.49,12.72-24.34,25.54-24.88,12.51-.53,26.78,10.16,26.39,23.51-.4,13.7-18.65,22.19-30.56,20.46-6.35-.92-11.86-4.52-15.27-9.96-1.52-2.43-2.39-5.06-3.09-7.82-.7-2.77-1.62-5.77-2.11-8.56-.13-.75-1.28-1.05-1.76-.47-1.73,2.1-2.95,3.21-3.33,6.04-.47,3.55,.06,6.83,1.41,10.14,2.34,5.76,6.54,10.72,11.82,13.99,11.93,7.4,27.81,4.42,38.54-3.73,11.62-8.81,15.41-22.86,7.19-35.52-7.09-10.93-20.79-17.05-33.62-14.6-14.84,2.84-24.97,16.63-24.43,31.39,.08,2.15,3.04,2.05,3.27,0h0Z"/>
            <path class="cls-2" d="M1319.9,363.57c5.6-7.07,14.67-10.63,22.96-5.93,8.61,4.88,10.17,15.76,4.29,23.46-5.63,7.37-16.12,7.96-23.54,2.9-7.49-5.11-9.09-15.57-2.5-22.05,.76-.75-.04-1.85-.97-1.67-12.87,2.36-9.4,20.48-2.55,27.12,9.78,9.49,26.17,9.05,34.78-1.71,8.59-10.75,6.49-26.41-5.36-33.78-9.63-5.98-29.39-3.44-27.92,11.34,.04,.36,.53,.69,.81,.34h0Z"/>
            <path class="cls-2" d="M1386.72,457.66c1.28-1.32,2.23-2.86,2.72-4.63,.28-1.02,.52-2.12,.39-3.18-.11-.85-.23-1.69-.34-2.54-.3-1.24-.86-2.32-1.71-3.24-.42-.72-.99-1.29-1.71-1.71-.92-.84-2-1.41-3.24-1.71-.02,0-.03-.01-.05-.02-.84-.11-1.68-.23-2.51-.34-1.3-.05-2.52,.22-3.64,.81-.8,.22-1.5,.63-2.09,1.22-1.03,.67-1.84,1.55-2.44,2.65-.51,.67-.85,1.45-1,2.33-.45,1.69-.45,3.38,0,5.07,.04,.12,.08,.24,.1,.37-.11-.84-.23-1.68-.34-2.52,.01,.13,.01,.25,0,.38l.34-2.51c-.02,.09-.04,.18-.08,.27,.32-.75,.63-1.5,.95-2.25-.02,.06-.05,.11-.09,.16-.69,1.08-1.06,2.24-1.12,3.49-.28,1.25-.22,2.5,.17,3.75,.32,.75,.63,1.5,.95,2.24,.59,1.09,1.4,1.97,2.42,2.64,.59,.58,1.28,.99,2.07,1.21,1.12,.59,2.33,.86,3.62,.81l2.5-.34c1.59-.45,2.97-1.25,4.15-2.42h0Z"/>
            <path class="cls-2" d="M487.58,1046.01c-3.79,4.37,.71,10.06,4.79,12.43,5.63,3.27,13.35,3.22,19.46,1.49,13.64-3.85,21.82-17.12,19.9-31.03-2.22-16.06-17.12-25.88-32.49-27.32-16.22-1.51-26.03,16.46-24.82,30.78,1.21,14.29,17.29,33.81,33.3,26.76,2.12-.93,1.88-4.28,0-5.28-5.01-2.68-10.62-3.66-15.13-7.37-4.75-3.9-7.51-9.49-7.84-15.61-.33-6.07,1.58-12.62,6.07-16.91,5.3-5.05,13.84-2.34,19.75,.39,11.33,5.23,17.04,19.27,9.91,30.34-3.09,4.79-8.36,8.02-13.89,9.18-6.63,1.39-16.36-.11-18.37-7.69-.07-.26-.43-.38-.62-.16h0Z"/>
            <path class="cls-2" d="M596.14,1112.33c-2.5-7.06-3.8-16.06,1.9-22.06,5.67-5.97,16.62-4.67,21.46,1.72,4.57,6.03,3.04,15.97-2.81,20.63-7.1,5.64-16.36,2.24-23.56-1.24-2.61-1.26-5.17,1.28-3.9,3.9,6,12.31,24.37,11.73,33.48,3.37,8.89-8.15,10.47-23.34,2.34-32.56-7.9-8.97-23.31-10.22-32-1.69-7.36,7.22-9.05,24.26,2.69,28.34,.22,.08,.47-.17,.39-.39h0Z"/>
            <path class="cls-2" d="M502.14,1139.17c-.66,12.18,14.8,19.14,25.16,15.98,10.49-3.2,16.25-16.21,11.8-26.19-5.21-11.68-23.26-13.7-33.52-8.08-9.64,5.27-12.28,21.56,.53,24.37,2.55,.56,3.88-2.69,1.75-4.14-2.02-1.38-2.76-5.73-2.28-8.01,.82-3.91,4.61-6.12,8.19-7.1,7.25-1.99,18.36-.42,19.52,8.53,.88,6.81-3.7,13.75-10.77,14.33-7.77,.64-13.73-5.33-18.84-10.31-.58-.56-1.49-.13-1.53,.63h0Z"/>
            <path class="cls-2" d="M614.14,1210.99c1.47-.91,2.82-2.02,3.63-3.59,.85-1.46,1.27-3.03,1.28-4.72,0-1.69-.43-3.26-1.28-4.72-1.66-2.85-4.78-4.63-8.08-4.63s-6.41,1.79-8.08,4.63c-.85,1.46-1.27,3.03-1.28,4.72,0,1.69,.43,3.26,1.28,4.72,.82,1.57,2.16,2.68,3.63,3.59,2.6,1.62,6.29,1.62,8.89,0h0Z"/>
            <path class="cls-2" d="M622.33,999.08c.19-.56,.37-1.13,.56-1.69,.47-1.75,.47-3.5,0-5.24-.47-1.67-1.31-3.12-2.54-4.35-.67-.51-1.33-1.03-2-1.54-1.54-.89-3.2-1.34-4.98-1.35-1.36-.05-2.62,.23-3.8,.85-1.22,.4-2.28,1.08-3.17,2.04-1.22,1.23-2.07,2.68-2.54,4.35-.47,1.75-.47,3.5,0,5.24,.19,.56,.37,1.13,.56,1.69,.31,.74,.62,1.48,.94,2.22,.58,1.08,1.38,1.95,2.39,2.6,.58,.58,1.26,.97,2.05,1.19,1.11,.58,2.3,.85,3.58,.8,.82-.11,1.64-.22,2.47-.33,.74-.31,1.48-.62,2.22-.94,1.08-.58,1.95-1.38,2.6-2.39,.82-.9,1.37-1.95,1.66-3.16h0Z"/>
            <path class="cls-2" d="M587.99,575.52c13.4-3.93,26.44-8.96,39.9-12.75,13.63-3.83,27.58-6.75,41.66-8.36,13.97-1.6,28.04-2,42.08-1.33,6.73,.32,13.45,.87,20.13,1.73,3.54,.45,7.07,1.01,10.59,1.63,4.47,.79,6.4,.82,9.83-2.42,1.07-1.01,1.07-2.54,.49-3.77-2.07-4.36-4.27-4.82-8.89-5.55-3.7-.59-7.42-1.09-11.14-1.54-6.97-.83-13.98-1.36-21-1.6-14.53-.49-29.1,.44-43.49,2.42-27.96,3.85-58.48,11.32-81.53,28.26-1.54,1.13-.71,3.89,1.38,3.28h0Z"/>
            <path class="cls-2" d="M845.55,582.72c13.67,5.51,28.93,8.03,43.14,11.96,14.17,3.92,28.11,8.7,41.7,14.31,13.59,5.6,26.9,12.09,39.75,19.22,6.55,3.64,12.99,7.47,19.3,11.51,6.35,4.06,12.98,5.45,20,8.01,2.46,.9,3.64-2.33,2.31-3.97-2.53-3.11-4.9-6.36-7.45-9.43-2.44-2.94-5.52-4.76-8.76-6.76-6.62-4.09-13.36-7.97-20.23-11.62-13.21-7.03-26.86-13.15-40.86-18.42-14.01-5.27-28.35-9.68-42.9-13.2-14.31-3.45-30.8-6.94-45.52-5.13-2.03,.25-2.41,2.74-.48,3.52h0Z"/>
            <path class="cls-2" d="M1063.3,703.44c16.52,15.44,33.47,30.72,47.91,48.26,4.77,5.79,13.66-2.77,8.35-8.35-15.99-16.82-33.63-32.01-54.67-41.97-1.28-.6-2.76,.98-1.6,2.07h0Z"/>
            <path class="cls-2" d="M1468.68,1150.5c13.14,21.79,28.6,42.09,45.24,61.31,7.99,9.23,16.02,18.61,24.7,27.2,3.95,3.91,8.24,7.6,13.33,9.94,2.37,1.09,4.68,1.77,7.27,2.11,3.27,.43,4.65-.79,7.7-1.58,3.12-.81,3.32-5.81,0-6.51-2.07-.43-4.91-2.34-6.91-3.29-2.11-1-4.07-2.23-5.98-3.58-4-2.82-7.46-6.25-10.86-9.75-8.29-8.53-16.38-17.26-24.28-26.15-15.54-17.48-30.74-35.26-46.23-52.78-1.92-2.17-5.45,.63-3.98,3.07h0Z"/>
            <path class="cls-2" d="M1634.02,1316.79c18.8,11.71,39.76,20.39,60.03,29.18,9.95,4.31,19.9,8.62,29.85,12.93,5.02,2.17,10,4.54,15.11,6.49,5.19,1.99,10.77,2.27,16.28,2.35,2.1,.03,3.21-2.68,1.72-4.14-3.61-3.54-7.45-7.16-12.02-9.43-4.91-2.45-10.3-4.2-15.39-6.24-10.38-4.15-20.75-8.3-31.13-12.44-20.53-8.21-41.46-16.97-63.03-22.06-2.03-.48-3.22,2.25-1.42,3.37h0Z"/>
            <path class="cls-2" d="M1813.47,1374.33c4.56,.02,8.97,.55,13.56,.39,4.53-.16,9.06-.33,13.59-.56,9.07-.45,18.15-.69,27.23-.88,9.09-.19,18.18-.18,27.28-.02,4.54,.08,9.1,.33,13.64,.29,4.35-.05,8.37-1.55,12.46-2.94,2.08-.71,3.18-4.24,.69-5.3-3.87-1.65-7.94-3.71-12.18-3.94-4.84-.26-9.77-.13-14.61-.06-9.1,.13-18.19,.48-27.28,.99-9.1,.52-18.18,1.36-27.23,2.35-4.28,.47-8.52,1.03-12.77,1.72-5.22,.84-9.9,2.38-14.96,3.63-2.44,.6-1.9,4.34,.59,4.35h0Z"/>
            <path class="cls-2" d="M2126.9,1401.23c4.32,3.67,9.82,4.49,15.02,6.37,5.89,2.13,11.98,3.71,17.9,5.76,11.84,4.09,23.41,8.55,34.72,13.96,11.22,5.37,22.04,11.55,32.35,18.49,5.04,3.39,9.94,6.99,14.9,10.49,5.42,3.82,11.97,5.32,17.73,8.52,1.21,.67,2.91-.75,2.02-2.02-3.61-5.12-6.15-11.1-10.78-15.44-4.81-4.51-10.46-8.23-15.95-11.83-11.09-7.28-22.76-13.67-34.85-19.14-11.98-5.42-24.56-10.09-37.36-13.17-5.98-1.44-12.14-2.9-18.26-3.45-5.85-.53-11.81-1.69-17.36,.7-.27,.12-.31,.56-.1,.75h0Z"/>
            <path class="cls-2" d="M2301.01,1489.15c4.25,6.62,7.94,13.46,12.86,19.64,5.17,6.49,10.58,12.81,16.03,19.07,5.23,6,10.46,12,15.7,18,4.65,5.33,9.94,14.55,17.82,14.37,2.39-.05,3.89-1.85,4.11-4.11,.75-7.45-7.84-13.46-12.52-18.27-5.76-5.93-11.53-11.87-17.3-17.8-5.53-5.69-11.13-11.35-16.89-16.81-5.9-5.59-12.61-9.95-19.03-14.88-.47-.36-1.09,.33-.79,.79h0Z"/>
            <path class="cls-2" d="M1392.67,404.87c5.93-2.24,12.23-3.53,18.28-5.5,6.09-1.98,12.27-3.66,18.39-5.55,11.99-3.72,24.1-6.93,36.41-9.38,12.48-2.49,25.09-4.24,37.77-5.29,6.09-.5,12.2-.84,18.31-1.01,3.27-.09,6.61,.08,9.87-.22,3.29-.3,5.91-2.14,9.08-2.89,2.21-.52,2.11-3.8,0-4.37-3.18-.86-5.74-2.72-9.08-2.99-3.25-.26-6.61,.04-9.87,.18-6.42,.28-12.83,.74-19.22,1.39-12.9,1.3-25.74,3.35-38.41,6.1-12.53,2.72-25,6.08-37.11,10.31-6.05,2.12-11.96,4.8-17.78,7.48-6.17,2.84-11.54,6.59-17.45,9.82-1.02,.56-.32,2.36,.81,1.93h0Z"/>
            <path class="cls-2" d="M1605.99,394.15c12.25,5.45,24.02,12.29,36.03,18.33,12.39,6.23,24.48,12.96,36.41,20.03,11.69,6.93,23.15,14.22,34.29,21.99,5.57,3.89,11.05,7.91,16.53,11.92,2.84,2.08,5.54,4.48,8.77,5.91,3.01,1.34,6.07,1.7,9.21,2.57,1.58,.44,2.86-1.32,2.08-2.71-1.59-2.88-2.67-5.71-4.77-8.31-2.17-2.68-5.14-4.57-7.9-6.61-5.7-4.2-11.54-8.19-17.46-12.07-11.6-7.59-23.49-14.77-35.68-21.37-12.21-6.61-24.81-12.56-37.55-18.08-12.87-5.58-25.95-9.12-39.27-13.25-.95-.29-1.63,1.22-.69,1.64h0Z"/>
            <path class="cls-2" d="M1823.16,506.05c9.88,6.29,19.87,12.02,30.74,16.44,11.01,4.48,22.81,7.52,34.5,9.59,11.35,2.01,22.88,3.15,34.4,3.37,11.99,.22,24.58,.04,36.21-3.07,5.51-1.48,4.56-10.46-1.37-10.15-11.06,.57-21.98,2.3-33.09,2.47-11.5,.18-23.02-.56-34.39-2.26-22.25-3.34-45.27-9.26-65.98-18.11-1.16-.5-2.13,1.02-1.01,1.73h0Z"/>
            <path class="cls-4" d="M3478.44,225.02c15.92,49.29,47.56,95.36,89.02,126.74,20.68,15.66,44.01,27.95,68.79,35.69,27.57,8.61,55.23,9.31,83.85,8.55,29.58-.78,57.98,1.94,85.71,12.89,26.42,10.44,48.68,28.09,71.66,44.34,42.55,30.1,91.1,48.44,143.05,53.5,27.81,2.71,56.19,.95,83.6-4.29,13.99-2.67,27.91-6.25,41.24-11.29,6.26-2.37,12.51-4.88,18.53-7.81,6.64-3.23,12.76-7.42,18.99-11.36,1.53-.97,.54-3.85-1.3-3.08-11.52,4.79-23.72,8.72-35.63,12.51-11.57,3.68-23.32,6.9-35.22,9.33-23.92,4.88-48.42,6.54-72.79,5.23-49.2-2.63-97.54-16.89-139.19-43.47-23.78-15.17-45.29-33.87-70.45-46.88-24.06-12.44-50.55-19.79-77.58-21.61-29.09-1.96-58.31,2.8-87.25-2.06-25.2-4.24-49.28-13.55-71.18-26.64-24.81-14.83-46.69-34.18-65.16-56.36-18.82-22.6-34.16-48.36-48.12-74.17-.17-.31-.69-.1-.58,.24h0Z"/>
            <path class="cls-4" d="M92.83,799.58c5.07-.65,9.49-3.54,14.41-4.86,6.06-1.63,12.32-2.31,18.54-2.98,13.55-1.45,27.12-2.65,40.74-3.24,27.26-1.17,54.64-.43,81.78,2.35,7,.72,13.99,1.56,20.95,2.57,3.51,.51,11.46,2.61,12.65-2.83,1.16-5.33-5.91-6.26-9.4-6.7-6.76-.87-13.54-1.6-20.32-2.21-27.51-2.47-55.19-2.84-82.74-.95-14.87,1.02-29.76,2.54-44.48,4.95-6.68,1.09-13.44,2.17-19.85,4.4-4.89,1.7-10.53,3.7-12.69,8.79-.12,.28,0,.77,.41,.71h0Z"/>
            <path class="cls-4" d="M580.29,894.55c6.36,6.82,14.6,11.73,22.18,17.2,8,5.77,16.06,11.44,23.9,17.42,15.88,12.12,31.17,25,45.85,38.54,29.13,26.87,55.06,56.31,79.62,87.36,24.99,31.59,48.85,64.23,77.08,93.08,23.86,24.39,52.16,43.44,82.12,59.57,17.69,9.53,35.97,17.99,54.64,25.41,17.36,6.89,35.66,13.55,54.48,14.51,1.3,.07,1.95-2,.69-2.56-15.05-6.71-30.86-11.73-46.25-17.65-17-6.53-33.61-14.07-49.79-22.43-29.8-15.4-58.99-33.42-82.7-57.4-28.15-28.47-51.99-60.87-76.64-92.31-24.2-30.88-50.57-60.1-79.76-86.35-16.16-14.54-33.05-28.26-50.56-41.14-8.85-6.51-17.86-12.83-27.05-18.85-8.61-5.64-17.73-11.92-27.62-14.76-.21-.06-.35,.2-.21,.35h0Z"/>
            <g class="cls-6">
              <path class="cls-3" d="M2992.48,738.98c-2.96,0-6-.39-9.06-1.28-4.6-1.34-7.88-3.63-9.75-6.81-3.16-5.36-1.42-11.78,2.48-16.48-5.11,1.29-10.25,2.8-15.52,4.35-6.37,1.88-12.95,3.81-19.57,5.33-17.8,4.09-36.08,5.25-54.32,3.45-8.21-.83-9.79-5.47-10.1-7.42-.55-3.72,1.8-6.59,2.69-7.66,5.13-6.24,11.64-11.48,18.81-15.17,2.56-1.32,5.25-2.48,7.85-3.61,7.44-3.22,14.46-6.27,17.65-12.24,.43-.79,.81-1.69,1.21-2.64,.78-1.83,1.66-3.91,3.13-5.82,4.92-6.44,13.19-7.49,20.56-7.95l49.02-3.08c-.7-3.74,.2-7.88,2.41-10.94,3.43-4.74,8.82-7.04,14.13-8.83,17.63-5.94,34.69-8.31,50.23-7.07l-6.44-5.26c-2.66-2.16-7.61-6.19-7.73-12.25-.12-5.13,3.29-9.8,9.58-13.15,13.46-7.16,28.9-7.28,43.55-6.79,10.01,.33,20.28,.91,30.52,1.71,2.48,.2,4.33,2.36,4.13,4.84-.2,2.48-2.36,4.33-4.84,4.13-10.1-.8-20.24-1.37-30.11-1.69-13.44-.45-27.52-.37-39.02,5.74-3,1.6-4.84,3.52-4.81,5.01,.04,1.9,3,4.31,4.42,5.47l19.83,16.19c1.65,1.35,2.13,3.68,1.14,5.57-.99,1.89-3.17,2.83-5.23,2.24-17.99-5.17-39.55-3.84-62.35,3.83-3.63,1.22-7.67,2.75-9.7,5.56-.81,1.13-1.15,2.81-.83,4.19,.18,.76,.51,1.28,1,1.54,1.78,.95,2.71,2.96,2.28,4.92-.43,1.97-2.11,3.41-4.11,3.54l-56.5,3.55c-5.38,.34-11.35,1-13.99,4.45-.78,1.01-1.37,2.4-1.99,3.87-.46,1.09-.94,2.22-1.56,3.37-4.66,8.72-13.88,12.72-22.01,16.24-2.58,1.12-5.02,2.18-7.32,3.36-6.1,3.13-11.62,7.59-15.97,12.88-.05,.06-.09,.12-.14,.17,.38,.1,.87,.19,1.49,.25,17.26,1.71,34.56,.61,51.41-3.26,6.36-1.46,12.81-3.36,19.05-5.2,12.54-3.69,25.51-7.51,39.03-8.24,1.98-.11,3.78,1.08,4.46,2.93,.68,1.85,.08,3.93-1.48,5.13-2.73,2.1-5.7,3.49-8.56,4.83-2.27,1.06-4.41,2.06-6.24,3.33-2.93,2.03-5.24,5.9-3.87,8.21,.84,1.42,2.92,2.27,4.51,2.74,12.9,3.75,26.03-4.85,32.71-10.31,3.63-2.96,7.15-6.3,10.56-9.54,6.23-5.91,12.67-12.02,20.43-16.58,1.16-.68,2.57-.81,3.83-.34,1.26,.46,2.25,1.47,2.7,2.74,1.3,3.74-.97,6.55-2.19,8.06-.05,.06-.11,.13-.17,.21,.73,.23,1.74,.39,2.7,.26,10.43-1.45,19.17-8.04,28.43-15.01,8.3-6.26,16.89-12.72,27.22-15.73,2.29-.66,4.68,.56,5.49,2.79,.78,2.16-.19,4.56-2.24,5.56-.09,.18-.13,.52-.07,.66,.46,.78,2.08,1.27,3.6,1.07,2.09-.28,4.18-1.45,6.71-2.96,6.16-3.68,12.21-7.48,17.98-11.31,2.07-1.37,4.86-.81,6.24,1.27,1.37,2.07,.8,4.86-1.27,6.24-5.89,3.9-12.06,7.78-18.33,11.53-2.55,1.53-6.05,3.62-10.14,4.16-5.18,.69-10.23-1.5-12.55-5.46-.32-.54-.57-1.11-.77-1.7-5.63,2.92-10.93,6.91-16.45,11.07-9.77,7.36-19.87,14.97-32.62,16.74-3.56,.49-8.66-.42-11.5-3.57-.52-.58-.95-1.21-1.27-1.89-3.23,2.71-6.35,5.67-9.56,8.71-3.53,3.35-7.18,6.81-11.06,9.98-6.59,5.38-18.51,13.26-31.86,13.26Z"/>
              <path class="cls-3" d="M3182.97,661.33c-.03-.05-.43-.78-1.09-2.12-.12-.26-.25-.54-.4-.85-.76-1.6-1.75-3.82-2.84-6.57-.15-.39-.31-.8-.47-1.21-.12-.32-.24-.64-.36-.97-.1-.27-.2-.54-.3-.82-.52-1.4-1.04-2.9-1.56-4.5-.2-.62-.4-1.26-.6-1.91-.52-1.66-1.02-3.41-1.5-5.24-.17-.62-.33-1.26-.49-1.9-.12-.49-.24-.98-.35-1.48-.09-.38-.18-.77-.27-1.16s-.18-.79-.26-1.18c-.27-1.23-.52-2.48-.76-3.76-.14-.79-.28-1.6-.42-2.42-.08-.42-.14-.85-.2-1.28-.05-.33-.1-.66-.15-.99-.04-.23-.07-.46-.1-.69-.04-.31-.09-.62-.13-.94-.07-.44-.12-.88-.17-1.33-.11-.89-.21-1.79-.3-2.7-.01-.02-.01-.04-.01-.06-.08-.89-.16-1.79-.23-2.7-.46-6.2-.46-12.79,.24-19.61,.06-.54,.12-1.09,.18-1.63,.14-1.17-.18-2.34-.9-3.27l-.37-.49c-.98-1.27-2.56-1.93-4.14-1.73l-1.24,.16-27.95,3.56c-1.9,.24-3.43,1.65-3.83,3.52-.29,1.36-.55,2.73-.76,4.11-.47,2.96-.76,5.95-.91,8.95-1.2,24.72,7.56,49.92,12.16,61.27,1.45,3.58,2.48,5.78,2.66,6.16,.37,.76,.92,1.38,1.59,1.82,.72,.48,1.59,.75,2.48,.75,.48,0,.96-.08,1.44-.24l29.63-10.02s.02,0,.03,0l.17-.06c.62-.21,1.18-.56,1.65-1,.48-.46,.87-1.02,1.11-1.65,.48-1.25,.38-2.65-.28-3.81Zm-31.28,6.7c-4.36-10.45-15.85-41.39-11.48-67.97l20.79-2.65c-.28,3.79-.36,7.49-.3,11.09,.09,4.69,.45,9.2,.99,13.49,.09,.65,.17,1.3,.26,1.93,0,.07,.02,.14,.03,.2,.1,.71,.21,1.4,.32,2.09,.33,2.07,.7,4.08,1.1,6.03,.14,.65,.27,1.29,.42,1.92,.28,1.27,.57,2.51,.87,3.72,.66,2.62,1.36,5.08,2.08,7.39,.11,.36,.22,.71,.33,1.06,.16,.52,.33,1.03,.5,1.53,.13,.38,.25,.75,.37,1.12,.11,.32,.22,.64,.34,.95,.17,.5,.35,.99,.52,1.47,.16,.46,.33,.9,.49,1.33,.1,.26,.2,.52,.3,.78,.89,2.35,1.76,4.41,2.52,6.13,.15,.33,.3,.65,.44,.96,.05,.11,.09,.21,.14,.31l-21.03,7.12Z"/>
              <path class="cls-3" d="M3174.27,593.77s-.09,0-.13,0c-2.48-.07-4.44-2.15-4.37-4.63,.54-18.39,10.55-34.47,10.98-35.14,.95-1.5,2.7-2.31,4.46-2.05l114.23,16.67c2.46,.36,4.16,2.64,3.8,5.1-.36,2.46-2.64,4.16-5.1,3.8l-111.18-16.23c-2.58,4.85-7.83,16.11-8.19,28.11-.07,2.44-2.07,4.37-4.5,4.37Z"/>
              <path class="cls-3" d="M3202.6,699.33c-1.18,0-2.36-.47-3.23-1.36-7.34-7.56-13.51-19.17-18.33-34.52-.75-2.37,.57-4.9,2.95-5.64,2.37-.74,4.9,.57,5.64,2.95,3.83,12.21,8.47,21.69,13.81,28.25l106.05-66.34c2.11-1.32,4.88-.68,6.2,1.43,1.32,2.11,.68,4.88-1.43,6.2l-109.28,68.35c-.74,.46-1.56,.68-2.38,.68Z"/>
              <path class="cls-3" d="M3308.47,622.9c-49.39,17.32-111.85,32-126.99,35.46,.15,.31,.28,.59,.4,.85,.53-.64,1.25-1.14,2.11-1.41,2.37-.74,4.9,.57,5.64,2.95,.49,1.58,1,3.11,1.53,4.6,17.29-4.08,52.28-12.66,87.21-23.23l30.31-18.95c-.08-.09-.15-.18-.21-.27Zm-9.78-45.33h0Zm81.65,9.12c-.03-.36-.08-.72-.14-1.08-.26-1.5-.77-2.91-1.53-4.22-.09-.16-.19-.32-.3-.48-.52-.8-1.15-1.57-1.87-2.29-1.16-1.17-2.57-2.24-4.26-3.2-.97-.56-2.02-1.08-3.17-1.58-.66-.29-1.36-.57-2.09-.83-.47-.17-.95-.34-1.45-.5-.28-.1-.57-.19-.87-.28-.82-.26-1.68-.5-2.57-.74-.81-.21-1.64-.41-2.51-.6-.22-.05-.45-.1-.69-.15-1.5-.33-3.08-.62-4.75-.88-.47-.08-.95-.15-1.44-.22-1.35-.21-2.75-.39-4.21-.55-1.08-.12-2.19-.23-3.33-.34-.38-.03-.76-.07-1.15-.1-8.1-.69-17.6-.92-28.55-.7-1.05,.02-2.12,.05-3.19,.07-.54,0-1.08,.02-1.63,.04-2.19,.07-4.44,.15-6.74,.25-.13,0-.26,0-.39,.02-1.48,.06-2.98,.14-4.5,.22-12.31,.64-25.92,1.74-40.15,3.24-14.3,1.49-29.22,3.39-44.03,5.61-13.57,2.04-26.18,4.22-35.52,6.16-.02,0-.03,0-.05,0-3.87,.8-6.91,1.48-9.28,2.1-3,.79-4.94,1.51-6.2,2.31-1.49,.95-2.02,2.02-2.2,3.49-.25,2-.45,3.98-.58,5.94-.29,3.79-.38,7.5-.3,11.09,.08,4.69,.44,9.2,.99,13.49,.09,.65,.17,1.3,.26,1.93,0,.07,.02,.14,.03,.2,.1,.71,.21,1.4,.32,2.09,.32,2.07,.7,4.08,1.1,6.03,.14,.65,.27,1.29,.42,1.92,.28,1.27,.57,2.51,.87,3.72,.66,2.62,1.36,5.08,2.08,7.39,.11,.36,.22,.71,.33,1.06,.16,.52,.33,1.03,.5,1.53,.13,.38,.25,.75,.37,1.12,.11,.32,.22,.64,.34,.95,.17,.5,.35,.99,.52,1.47,.16,.46,.33,.9,.49,1.33,.1,.26,.2,.52,.3,.78,.89,2.35,1.76,4.41,2.52,6.13,.15,.33,.3,.65,.44,.96,.05,.11,.09,.21,.14,.31,1.31,2.85,2.24,4.52,2.4,4.81,.8,1.45,2.32,2.3,3.92,2.3,.32,0,.65-.03,.98-.1,.02-.01,.11-.03,.27-.06,0,0,.02,0,.03,0,.37-.08,1.05-.23,2.03-.46,1.9-.43,4.9-1.12,8.81-2.04,17.29-4.08,52.28-12.66,87.21-23.23,12.09-3.66,24.17-7.56,35.51-11.59,1.26-.45,2.52-.9,3.76-1.35,.07-.03,.15-.05,.22-.08,7.39-2.69,14.09-5.29,20.12-7.83,.55-.23,1.09-.46,1.63-.69,1.07-.46,2.12-.92,3.14-1.37,1.54-.68,3.04-1.36,4.49-2.03,.96-.45,1.9-.9,2.82-1.34,7.82-3.78,14.05-7.43,18.79-10.98,.56-.42,1.1-.84,1.61-1.25,.77-.62,1.5-1.24,2.18-1.86h0c.34-.32,.67-.63,.98-.94,.42-.4,.82-.81,1.2-1.21,.2-.22,.4-.43,.58-.65,3.68-4.14,5.28-8.2,4.93-12.26Zm-9.04,1.56c0,.09-.03,.19-.05,.29-.42,1.72-2.09,4.72-7.78,8.99-.22,.17-.45,.34-.69,.51-.95,.69-2,1.41-3.16,2.16-.29,.19-.59,.38-.89,.57-3.97,2.5-9.16,5.33-15.96,8.49-.53,.25-1.06,.49-1.6,.74-2.72,1.24-5.68,2.53-8.9,3.87-1.26,.53-2.57,1.06-3.91,1.6,0,0-.03,0-.04,.02-1.33,.53-2.71,1.07-4.12,1.62-2.15,.83-4.39,1.68-6.73,2.55-.88,.33-1.78,.66-2.69,.99-1.46,.53-2.93,1.06-4.42,1.59-.1,.03-.2,.07-.3,.11-.53,.18-1.06,.37-1.59,.55-49.39,17.32-111.85,32-126.99,35.46-.76-1.6-1.75-3.82-2.84-6.57-.15-.39-.31-.8-.47-1.21-.12-.32-.24-.64-.36-.97-.1-.27-.2-.54-.3-.82-.52-1.4-1.04-2.9-1.56-4.5-.2-.62-.4-1.26-.6-1.91-.52-1.66-1.02-3.41-1.5-5.24-.17-.62-.33-1.26-.49-1.9-.12-.49-.24-.98-.35-1.48-.1-.38-.19-.77-.27-1.16-.09-.39-.18-.78-.26-1.18-.27-1.23-.52-2.48-.76-3.76-.15-.79-.29-1.6-.42-2.42-.08-.42-.14-.85-.2-1.28-.06-.33-.11-.66-.15-.99-.04-.23-.07-.46-.1-.69-.05-.31-.1-.62-.13-.94-.07-.44-.12-.88-.17-1.33-.11-.89-.21-1.79-.3-2.7-.01-.02-.01-.04-.01-.06-.09-.89-.17-1.79-.23-2.7-.47-6.2-.47-12.78,.23-19.61h.01c1.08-.35,2.57-.74,4.42-1.19,.38-.09,.77-.18,1.17-.27,19.94-4.59,75.46-13.38,122.85-15.9,.04-.01,.08-.01,.11-.01,.14,0,.28-.02,.41-.02,2.91-.16,5.78-.29,8.61-.39,.99-.03,1.97-.07,2.94-.1h.15c25.15-.75,39.84,.84,48.42,2.98,.82,.2,1.58,.41,2.29,.63,3.8,1.13,6.12,2.38,7.54,3.48,.18,.14,.34,.27,.49,.41,.07,.06,.14,.13,.21,.2,1.1,1.04,1.39,1.91,1.47,2.36,.04,.24,.06,.62-.03,1.13Z"/>
              <path class="cls-3" d="M3220.51,614.43c-2.72-4.85-7.17-8.35-12.52-9.86-11.05-3.11-22.58,3.34-25.69,14.39-.53,1.88-.78,3.77-.78,5.64,0,9.09,6,17.47,15.17,20.05,1.89,.53,3.78,.78,5.64,.78,9.09,0,17.47-6,20.05-15.17,1.51-5.36,.85-10.98-1.87-15.83Zm-6.79,13.39c-1.77,6.27-8.31,9.94-14.58,8.17-6.28-1.77-9.95-8.31-8.18-14.59,1.77-6.27,8.32-9.94,14.59-8.17,3.04,.86,5.56,2.84,7.11,5.6,1.54,2.75,1.92,5.95,1.06,8.99Z"/>
              <path class="cls-3" d="M3247.61,598c-9.47-2.67-19.36,2.87-22.03,12.35-.45,1.61-.67,3.23-.67,4.83,0,7.79,5.15,14.97,13.02,17.19,1.61,.46,3.23,.67,4.83,.67,7.8,0,14.98-5.15,17.2-13.01,2.67-9.48-2.87-19.36-12.35-22.03Zm3.68,19.59c-1.32,4.7-6.23,7.44-10.92,6.12-4.7-1.32-7.45-6.22-6.12-10.92,1.32-4.7,6.22-7.45,10.92-6.13,4.7,1.33,7.45,6.23,6.12,10.93Z"/>
              <path class="cls-3" d="M3293.82,599.81c-2.14-3.81-5.64-6.56-9.85-7.75-4.21-1.19-8.63-.66-12.44,1.48-3.81,2.13-6.57,5.63-7.75,9.84-.42,1.48-.62,2.97-.62,4.44,0,7.14,4.73,13.73,11.93,15.76,1.48,.41,2.97,.61,4.44,.61,7.14,0,13.73-4.72,15.76-11.93,1.19-4.21,.66-8.63-1.47-12.45Zm-7.19,10.01c-1.1,3.91-5.19,6.19-9.09,5.09-3.92-1.1-6.2-5.18-5.1-9.09,.53-1.9,1.77-3.47,3.49-4.43,1.72-.97,3.71-1.2,5.6-.67,1.9,.54,3.47,1.78,4.43,3.49,.97,1.72,1.2,3.71,.67,5.61Z"/>
              <path class="cls-3" d="M3380.34,586.69c-.02-.36-.07-.72-.13-1.08-.26-1.5-.77-2.91-1.54-4.22-.09-.16-.19-.32-.3-.48-.52-.81-1.14-1.57-1.87-2.29-1.16-1.17-2.57-2.24-4.26-3.2-.97-.56-2.02-1.09-3.17-1.58-.66-.29-1.36-.57-2.09-.83-.47-.17-.95-.34-1.45-.5-.28-.1-.57-.19-.87-.28-.82-.26-1.68-.5-2.57-.74-.81-.21-1.64-.41-2.51-.6-.22-.05-.45-.1-.69-.15-1.5-.33-3.08-.62-4.75-.88-.47-.08-.95-.15-1.44-.22-1.35-.21-2.75-.39-4.21-.55-1.08-.12-2.19-.23-3.33-.34-.38-.03-.76-.07-1.15-.1-8.09-.68-17.6-.91-28.55-.7-1.05,.02-2.12,.05-3.19,.07-.54,.02-1.09,.03-1.63,.05-1.38,.04-2.6,.7-3.4,1.71-.62-.68-1.47-1.19-2.45-1.38-.3-.06-.6-.09-.89-.09-.13,0-.26,0-.39,.02-.86,.07-1.67,.4-2.34,.92-.83,.64-1.45,1.57-1.67,2.68-.07,.34-.47,2.42-.81,5.64h0c-1.02,9.87-1.48,30.48,9.78,45.33,.06,.09,.13,.18,.21,.27,1.35,1.77,2.88,3.46,4.6,5.03,.61,.55,1.34,.92,2.11,1.07,.31,.08,.62,.11,.93,.11,.44,0,.89-.07,1.32-.2,.07-.02,.15-.04,.22-.07,7.39-2.69,14.09-5.3,20.12-7.84,.55-.23,1.09-.46,1.63-.69,1.07-.45,2.11-.91,3.14-1.37,1.54-.68,3.04-1.36,4.49-2.03,.96-.45,1.9-.9,2.82-1.34,7.82-3.78,14.05-7.43,18.79-10.98,.56-.42,1.1-.84,1.61-1.25,.77-.62,1.5-1.24,2.18-1.86h0c.34-.32,.67-.63,.98-.94,.42-.4,.82-.81,1.2-1.21,.2-.22,.4-.43,.58-.65,3.68-4.14,5.28-8.2,4.93-12.26Zm-9.04,1.56c0,.09-.03,.19-.05,.29-.42,1.72-2.09,4.72-7.78,8.99-.22,.17-.45,.34-.69,.51-.95,.69-2,1.41-3.16,2.16-.29,.19-.59,.38-.89,.57-3.97,2.5-9.16,5.33-15.96,8.49-.52,.25-1.06,.49-1.6,.74-2.72,1.24-5.68,2.53-8.9,3.87-1.26,.53-2.57,1.06-3.91,1.6,0,0-.03,0-.04,.02-1.33,.53-2.71,1.07-4.12,1.62-2.15,.83-4.39,1.68-6.73,2.55-11.77-12.9-10.64-34.2-9.65-42.5,.05-.39,.09-.76,.14-1.09,.76,.62,1.78,.99,2.8,.99h.15c25.15-.75,39.84,.84,48.42,2.98,.82,.2,1.58,.41,2.29,.63,3.8,1.13,6.12,2.38,7.54,3.48,.18,.14,.34,.27,.49,.41,.07,.06,.14,.13,.21,.2,1.1,1.04,1.39,1.91,1.47,2.36,.04,.24,.06,.62-.03,1.13Z"/>
            </g>
            <path class="cls-2" d="M2640.62,897.19c5.42-6.2,11.05-12.09,16.07-18.63,5.28-6.89,10.25-14.02,15.47-20.95,10.59-14.06,21.67-27.72,33.26-40.96,21.32-24.35,44.93-46.83,72.09-64.6,7.5-4.91,15.24-9.45,23.21-13.55,7.84-4.04,16.9-6.71,23.98-11.95,2.8-2.08,2.39-7.9-2.02-7.47-7.84,.77-14.84,4.53-21.83,8.01-7.27,3.62-14.35,7.61-21.23,11.91-13.68,8.55-26.6,18.35-38.76,28.95-26.02,22.67-48.18,49.15-68.42,77-5.81,8-11.48,16.11-17.05,24.28-6,8.79-10.61,17.98-15.51,27.39-.24,.46,.37,1,.75,.58h0Z"/>
            <circle class="cls-3" cx="2322" cy="1304.74" r="20.5" transform="translate(-242.49 2024.05) rotate(-45)"/>
            <circle class="cls-3" cx="2376.3" cy="1271.35" r="12.89" transform="translate(592.99 3291.99) rotate(-76.72)"/>
            <circle class="cls-3" cx="2378.8" cy="1342.8" r="9.29"/>
            <circle class="cls-3" cx="2239.43" cy="628.43" r="20.5" transform="translate(956.53 2568.57) rotate(-72.2)"/>
            <circle class="cls-3" cx="1695.12" cy="1057.69" r="20.5" transform="translate(-30.92 51.25) rotate(-1.72)"/>
            <path class="cls-3" d="M2268.03,563c.67-7.09,6.95-12.29,14.03-11.62s12.29,6.95,11.62,14.03-6.95,12.29-14.03,11.62-12.29-6.95-11.62-14.03Z"/>
            <circle class="cls-3" cx="1590.11" cy="1061.85" r="16.33" transform="translate(-311.83 1258.37) rotate(-39.63)"/>
            <path class="cls-3" d="M2273.7,491.95c-3.27-3.95-2.72-9.81,1.23-13.09,3.95-3.27,9.81-2.72,13.09,1.23,3.27,3.95,2.72,9.81-1.23,13.09-3.95,3.27-9.81,2.72-13.09-1.23Z"/>
            <path class="cls-3" d="M1637.09,986.72c-3.27-3.95-2.72-9.81,1.23-13.09,3.95-3.27,9.81-2.72,13.09,1.23,3.27,3.95,2.72,9.81-1.23,13.09-3.95,3.27-9.81,2.72-13.09-1.23Z"/>
          </g>
        </g>
      </g>
    </g>
  </g>
</svg>