<?xml version="1.0" encoding="utf-8"?>
<!-- Generator: Adobe Illustrator 27.0.0, SVG Export Plug-In . SVG Version: 6.00 Build 0)  -->
<svg version="1.1" id="Layer_2_00000160182226439859446680000013685549230244962749_"
	 xmlns="http://www.w3.org/2000/svg" xmlns:xlink="http://www.w3.org/1999/xlink" x="0px" y="0px" viewBox="0 0 500.6 258.4"
	 style="enable-background:new 0 0 500.6 258.4;" xml:space="preserve">
<style type="text/css">
	.st0{fill:url(#SVGID_1_);}
	.st1{fill:#FFFFFF;}
</style>
<linearGradient id="SVGID_1_" gradientUnits="userSpaceOnUse" x1="0" y1="129.17" x2="500.57" y2="129.17">
	<stop  offset="0" style="stop-color:#27AAE1;stop-opacity:0.8"/>
	<stop  offset="1" style="stop-color:#446DB5;stop-opacity:0.9"/>
</linearGradient>
<path class="st0" d="M486.6,55.4h-17.9c-6.3-18-23.4-30.9-43.6-30.9H308.8V14c0-7.7-6.3-14-14-14h-89.1c-7.7,0-14,6.3-14,14v10.5
	H75.5c-20.2,0-37.3,12.9-43.6,30.9H14c-7.7,0-14,6.3-14,14v89.1c0,7.7,6.3,14,14,14h15.3v38.3c0,26.3,21.3,47.6,47.6,47.6h87.9
	c17,0,32.8-9.1,41.3-23.8l0,0c8.5-14.7,24.2-23.8,41.3-23.8h5.8c17,0,32.7,9.1,41.3,23.8l0,0c8.5,14.7,24.2,23.8,41.3,23.8h87.9
	c26.3,0,47.6-21.3,47.6-47.6v-38.3h15.3c7.7,0,14-6.3,14-14V69.3C500.6,61.6,494.3,55.4,486.6,55.4L486.6,55.4z"/>
<g>
	<path class="st1" d="M328.7,181.8c-0.9,0-1.8-0.3-2.5-1c-1.4-1.4-1.4-3.6,0-5L429.6,72.4c1.4-1.4,3.6-1.4,5,0c1.4,1.4,1.4,3.6,0,5
		L331.2,180.8C330.5,181.5,329.6,181.8,328.7,181.8L328.7,181.8z"/>
	<path class="st1" d="M354.6,191.4c-0.9,0-1.8-0.3-2.5-1c-1.4-1.4-1.4-3.6,0-5l61.3-61.3c1.4-1.4,3.6-1.4,5,0c1.4,1.4,1.4,3.6,0,5
		l-61.3,61.3C356.4,191.1,355.5,191.4,354.6,191.4L354.6,191.4z"/>
	<path class="st1" d="M337.2,139.7c-0.9,0-1.8-0.3-2.5-1c-1.4-1.4-1.4-3.6,0-5L396,72.4c1.4-1.4,3.6-1.4,5,0c1.4,1.4,1.4,3.6,0,5
		l-61.3,61.3C339,139.4,338.1,139.7,337.2,139.7L337.2,139.7z"/>
</g>
</svg>
