<?xml version="1.0" encoding="UTF-8"?>
<svg id="Layer_2" data-name="Layer 2" xmlns="http://www.w3.org/2000/svg" viewBox="0 0 572.79 305.57">
  <defs>
    <style>
      .cls-1 {
        fill: #31aee4;
      }
    </style>
  </defs>
  <g id="Layer_1-2" data-name="Layer 1">
    <g>
      <path class="cls-1" d="M62.16,288c-17.98-13.12-29.63-35.75-34.64-67.24-1.03-6.51-1.78-13.44-2.21-20.59l-.29-6.26c-.66-18.41,.58-38.24,3.66-58.92,4.2-28.14,11.48-55.74,21.07-79.82,6.18-15.52,16.08-36.22,29.34-50.91-12.84,2.21-22.03,5.32-26.37,9.42-10.53,9.94-20.66,27.23-29.19,48.66C14.75,84.38,7.65,110.8,3.62,137.85,.82,156.58-.47,175.5,.16,193.23l.27,5.77c.39,6.44,1.05,12.71,2.01,18.72,3.86,24.31,12.45,44.07,26.93,54.63,10.38,7.58,20.77,13.69,31.08,18.5,5,2.33,9.99,4.35,14.95,6.09-4.47-2.78-8.88-5.76-13.23-8.94Z"/>
      <path class="cls-1" d="M571.93,189.46c-.45-3.77-1.07-7.71-1.84-11.79l-.66-3.37c-2.24-10.94-5.46-22.7-9.31-34.49-5.68-17.4-12.74-34.97-19.99-50.15-7.27-15.2-14.77-28.09-21.34-36.05-3.41-4.13-10.27-8.16-19.84-12.03-9.74-3.94-22.41-7.77-37.26-11.41-15.29-3.75-33.04-7.33-52.41-10.65-20.13-3.44-42.14-6.6-65.02-9.34-.03,0-.05,0-.08,0-.02,0-.03,0-.05,0l-.22-.03s-.02,0-.03,0c0,0-.02,0-.03,0l-.2-.02c-23.92-2.86-48.85-5.26-73.48-7.01C244.41,1.28,219.06,.17,195.8,.02c-24.22-.16-45.97,.72-63.17,2.87-17.72,2.22-30.36,5.75-35.69,10.79-10.53,9.94-20.66,27.23-29.19,48.66-8.78,22.04-15.88,48.46-19.91,75.51-2.79,18.73-4.09,37.65-3.46,55.38l.27,5.77c.39,6.44,1.05,12.71,2.01,18.72,3.86,24.31,12.45,44.07,26.93,54.63,10.38,7.58,20.76,13.69,31.08,18.5,10.2,4.75,20.32,8.23,30.31,10.61,9.86,2.35,19.59,3.62,29.14,4,9.42,.37,18.65-.13,27.66-1.34h0c18.94-2.54,36.88-8.17,53.55-15.31,16.16-6.92,31.15-15.27,44.78-23.63,13.25-8.13,25.26-16.3,35.91-23.25,10.4-6.79,19.57-12.45,27.4-15.81,1.17-.51,2.53-.97,4.02-1.4,1.48-.42,3.1-.81,4.81-1.15,1.7-.34,3.49-.63,5.32-.88,1.83-.24,3.69-.44,5.56-.59,.02,0,.05,0,.08,0s.05,0,.08,0c.03,0,.05,0,.08,0,.03,0,.05,0,.08,0,.02,0,.05,0,.07,0s.05,0,.08,0c.02,0,.05,0,.08,0,.03,0,.05,0,.07,0,1.86-.15,3.72-.24,5.54-.29,1.81-.04,3.58-.04,5.27,.03,1.68,.06,3.29,.18,4.77,.36,1.48,.18,2.84,.41,4.03,.71,7.85,1.95,16.62,5.77,26.1,10.29,9.35,4.46,19.37,9.59,29.85,14.26,10.31,4.6,21.02,8.74,31.91,11.34,10.68,2.55,21.5,3.62,32.21,2.18,4.9-.66,9.77-1.83,14.58-3.62,4.76-1.77,9.46-4.14,14.08-7.2,4.56-3.02,9.04-6.71,13.41-11.15,4.31-4.38,8.52-9.48,12.59-15.38,4.78-6.93,5.62-19.22,3.83-34.13Zm-25.07,20.45c-3.01,4.3-6.15,8.11-9.34,11.35-3.03,3.08-6.18,5.71-9.37,7.81-2.88,1.91-5.9,3.45-8.95,4.59-2.94,1.09-5.92,1.83-9.12,2.26-2.08,.28-4.27,.42-6.5,.42-5.09,0-10.48-.7-16.5-2.14-7.99-1.91-16.72-5.03-27.5-9.84-6.56-2.92-13.1-6.12-19.42-9.21-3.24-1.59-6.6-3.23-9.85-4.78-9.86-4.7-20.42-9.41-30.88-12-2.15-.54-4.55-.97-7.1-1.28-2.13-.26-4.43-.43-6.83-.53-1.29-.05-2.64-.08-4.01-.08-.93,0-1.88,.01-2.83,.03-2.23,.05-4.53,.17-6.83,.35-.03,0-.28,.02-.28,.02l-.41,.03c-2.34,.19-4.67,.43-6.93,.74-2.38,.32-4.69,.7-6.88,1.14-2.4,.47-4.7,1.03-6.83,1.63-2.56,.73-4.94,1.57-7.07,2.49-9.33,4.01-19.23,10.04-31.21,17.85-2.95,1.93-6.01,3.95-9.17,6.03-8.3,5.49-16.89,11.16-26.15,16.84-15.12,9.28-28.7,16.46-41.52,21.95-16.47,7.05-31.83,11.47-46.96,13.49l-.26,.03c-6.04,.8-12.08,1.2-17.96,1.2h0c-1.7,0-3.41-.03-5.1-.1-8.18-.32-16.35-1.44-24.29-3.33-8.58-2.04-17.16-5.05-25.49-8.93-9.06-4.22-18.1-9.61-26.86-16-7.88-5.76-13.88-19.32-16.88-38.2-.8-5.04-1.38-10.46-1.73-16.12l-.26-5.45c-.55-15.65,.53-32.68,3.21-50.62,3.64-24.44,10.18-49.26,18.39-69.9,7-17.57,15.07-31.64,22.28-38.88,1.56-.73,7.36-3,22.28-4.86,14.28-1.79,32.62-2.69,54.52-2.69,1.77,0,3.55,0,5.35,.02,22.02,.15,46.49,1.16,72.74,3.02,23.79,1.69,48.04,4,72.11,6.88l.25,.03,.35,.05,.44,.04c22.4,2.68,43.76,5.75,63.49,9.12,19.11,3.26,36.15,6.72,50.65,10.28,14.07,3.45,25.44,6.91,33.8,10.29,6.8,2.75,9.5,4.61,10.21,5.15,4.91,6.12,11.32,17.15,17.66,30.41,6.91,14.45,13.58,31.18,18.77,47.09,3.71,11.36,6.59,22.01,8.56,31.64l.62,3.16c.67,3.56,1.19,6.92,1.57,10.02,1.36,11.37,.33,16.25,0,17.45Z"/>
      <path class="cls-1" d="M509.94,278.62c-10.71,1.43-21.53,.37-32.21-2.18-10.89-2.6-21.61-6.74-31.91-11.34-10.48-4.67-20.5-9.8-29.85-14.26-9.48-4.52-18.25-8.34-26.1-10.29-1.2-.3-2.56-.54-4.03-.71-1.48-.18-3.09-.3-4.77-.36-1.69-.06-3.46-.07-5.27-.03-1.82,.04-3.68,.14-5.54,.29-.03,0-.05,0-.08,0-.02,0-.05,0-.08,0h-.08s-.05,.01-.07,.01c-.03,0-.05,0-.08,0s-.05,0-.08,0c-.03,0-.05,0-.08,0s-.05,0-.08,0c-1.87,.15-3.74,.34-5.56,.59-1.83,.25-3.62,.54-5.32,.88-1.71,.34-3.33,.72-4.81,1.15-1.49,.43-2.84,.89-4.02,1.4-4.24,1.82-8.88,4.32-13.89,7.31,.92-.15,1.85-.29,2.79-.42,1.83-.24,3.69-.44,5.56-.59,.03,0,.05,0,.08,0,.03,0,.05,0,.08,0,.03,0,.05,0,.08,0,.03,0,.05,0,.08,0,.02,0,.05,0,.07,0,.03,0,.05,0,.08,0s.05,0,.08,0c.03,0,.05,0,.07,0,1.86-.15,3.72-.24,5.54-.29,1.81-.04,3.58-.04,5.27,.03,1.68,.06,3.29,.18,4.77,.36,1.48,.18,2.84,.41,4.03,.71,7.85,1.95,16.62,5.77,26.1,10.29,9.35,4.46,19.37,9.59,29.85,14.26,10.31,4.6,21.02,8.74,31.91,11.34,10.68,2.55,21.5,3.62,32.21,2.18,4.9-.66,9.77-1.83,14.58-3.62,4.76-1.77,9.46-4.14,14.08-7.2,.02-.01,.04-.03,.06-.04-1.16,.22-2.32,.4-3.48,.56Z"/>
    </g>
  </g>
</svg>