<?xml version="1.0" encoding="UTF-8"?>
<svg id="Layer_2" data-name="Layer 2" xmlns="http://www.w3.org/2000/svg" viewBox="0 0 490.72 286.29">
  <defs>
    <style>
      .cls-1 {
        fill: #31aee4;
      }
    </style>
  </defs>
  <g id="Layer_1-2" data-name="Layer 1">
    <g>
      <path class="cls-1" d="M40.56,39.03H450.17c6.59,0,12.9,1.24,18.71,3.49l-23.72-23.13C440.99,.83,409.85,0,392.29,0H98.44c-17.56,0-48.7,.83-52.87,19.38l-23.72,23.13c5.81-2.24,12.12-3.49,18.71-3.49Z"/>
      <g>
        <path class="cls-1" d="M450.17,50.63H40.56C18.16,50.63,0,68.78,0,91.18V245.73c0,22.4,18.16,40.56,40.56,40.56h24.81c-23.5,0-42.61-19.11-42.61-42.61V107.84c0-23.49,19.11-42.61,42.61-42.61H425.36c23.49,0,42.61,19.11,42.61,42.61V243.68c0,23.49-19.11,42.61-42.61,42.61h24.81c22.4,0,40.55-18.16,40.55-40.56V91.18c0-22.4-18.16-40.56-40.56-40.56Z"/>
        <path class="cls-1" d="M454.04,243.68V107.85c0-15.81-12.87-28.68-28.68-28.68H65.36c-15.81,0-28.68,12.86-28.68,28.68V243.68c0,15.81,12.86,28.68,28.68,28.68h85.87c16.13,0,31.15-8.68,39.21-22.64,10.54-18.26,30.19-29.61,51.28-29.61h7.28c21.09,0,40.74,11.34,51.28,29.61,8.06,13.97,23.09,22.64,39.22,22.64h85.87c15.81,0,28.68-12.86,28.68-28.68Z"/>
      </g>
    </g>
  </g>
</svg>