<?xml version="1.0" encoding="UTF-8"?>
<svg id="Layer_2" data-name="Layer 2" xmlns="http://www.w3.org/2000/svg" xmlns:xlink="http://www.w3.org/1999/xlink" viewBox="0 0 500.57 258.34">
  <defs>
    <style>
      .cls-1 {
        fill: url(#blue_gradient);
      }

      .cls-2 {
        fill: #fff;
      }
    </style>
    <linearGradient id="blue_gradient" data-name="blue gradient" x1="0" y1="129.17" x2="500.57" y2="129.17" gradientUnits="userSpaceOnUse">
      <stop offset="0" stop-color="#27aae1" stop-opacity=".8"/>
      <stop offset="1" stop-color="#446db5" stop-opacity=".9"/>
    </linearGradient>
  </defs>
  <g id="Layer_2-2" data-name="Layer 2">
    <g>
      <path class="cls-1" d="M486.57,55.37h-17.92c-6.31-18-23.44-30.91-43.59-30.91h-116.26V13.98c0-7.72-6.26-13.98-13.98-13.98h-89.08c-7.72,0-13.98,6.26-13.98,13.98v10.48H75.5c-20.15,0-37.29,12.91-43.59,30.91H13.98c-7.72,0-13.98,6.26-13.98,13.98v89.08c0,7.72,6.26,13.98,13.98,13.98h15.33v38.29c0,26.31,21.33,47.64,47.64,47.64h87.94c17.02,0,32.75-9.08,41.26-23.82h0c8.51-14.74,24.24-23.82,41.26-23.82h5.75c17.02,0,32.75,9.08,41.26,23.82h0c8.51,14.74,24.24,23.82,41.26,23.82h87.94c26.31,0,47.64-21.33,47.64-47.64v-38.29h15.33c7.72,0,13.98-6.26,13.98-13.98V69.35c0-7.72-6.26-13.98-13.98-13.98h-.02Z"/>
      <g>
        <path class="cls-2" d="M328.72,181.79c-.9,0-1.8-.34-2.49-1.03-1.38-1.38-1.38-3.61,0-4.98l103.37-103.37c1.37-1.38,3.61-1.38,4.98,0,1.38,1.38,1.38,3.61,0,4.98l-103.37,103.37c-.69,.69-1.59,1.03-2.49,1.03h0Z"/>
        <path class="cls-2" d="M354.57,191.42c-.9,0-1.8-.34-2.49-1.03-1.38-1.38-1.38-3.61,0-4.98l61.32-61.32c1.37-1.38,3.61-1.38,4.98,0,1.38,1.38,1.38,3.61,0,4.98l-61.32,61.32c-.69,.69-1.59,1.03-2.49,1.03h0Z"/>
        <path class="cls-2" d="M337.18,139.74c-.9,0-1.8-.34-2.49-1.03-1.38-1.38-1.38-3.61,0-4.98l61.32-61.32c1.37-1.38,3.61-1.38,4.98,0,1.38,1.38,1.38,3.61,0,4.98l-61.32,61.32c-.69,.69-1.59,1.03-2.49,1.03h0Z"/>
      </g>
    </g>
  </g>
</svg>