<?xml version="1.0" encoding="UTF-8"?>
<svg id="Layer_2" data-name="Layer 2" xmlns="http://www.w3.org/2000/svg" viewBox="0 0 586.62 388.95">
  <defs>
    <style>
      .cls-1 {
        fill: #31aee4;
      }
    </style>
  </defs>
  <g id="Layer_1-2" data-name="Layer 1">
    <g>
      <path class="cls-1" d="M504.33,180.11c-15.69-17.01-113.55-25.51-211.33-25.49-97.77-.02-195.63,8.48-211.33,25.49-30.39,32.95-58.17,149.25-24.91,179.28,76.06,68.68,169.89-2.14,216.1-14.94,4.84-1.34,12.51-2,20.13-1.98,7.63-.02,15.29,.64,20.13,1.98,46.2,12.8,119.54,83.4,216.1,14.94,36.56-25.92,5.48-146.34-24.9-179.28Zm-232.72,102.12v-74.1l64.17,37.05-64.17,37.05Z"/>
      <path class="cls-1" d="M522,187.39c8.43,13.75,16.34,32.43,22.61,53.76,7.47,25.4,11.35,50.77,11.12,71.66,0,0,18.37,4.19,21.9,0,20.5-24.33,2.77-104.92-21.56-125.42-6.51-5.49-34.07,0-34.07,0Z"/>
      <path class="cls-1" d="M64.62,187.39c-8.43,13.75-16.34,32.43-22.61,53.76-7.47,25.4-11.35,50.77-11.12,71.66,0,0-18.37,4.19-21.9,0-20.5-24.33-2.77-104.92,21.56-125.42,6.51-5.49,34.07,0,34.07,0Z"/>
      <path class="cls-1" d="M128.35,107c11.08-15.55,27.25-32.48,50.74-47.66-20.35,12.74-37.65,28.96-50.74,47.66Z"/>
      <path class="cls-1" d="M128.19,107.22c-.11,.16-.22,.32-.33,.47,.11-.16,.22-.32,.33-.47Z"/>
      <path class="cls-1" d="M128.35,107c-.05,.08-.11,.15-.16,.23,.05-.08,.11-.15,.16-.23Z"/>
      <path class="cls-1" d="M328.69,25.36c-15.11,1.02-29.2,2.24-37.09,3.57,87.65,1.55,160.47,55.82,178.51,127.96,19.53,3.88,29.87,8.05,35.82,11.8-.11-.8-.22-1.59-.35-2.38-13.05-85.74-90.36-146.81-176.9-140.94Z"/>
      <path class="cls-1" d="M287.75,0C170.58,0,74.83,80.03,68.34,180.87c1.99-2.81,4-5.33,6.02-7.51,3.68-3.99,10.84-9.1,30.44-13.99,0,0,3.21-23.48,23.07-51.66,.11-.16,.22-.32,.33-.47,.05-.08,.11-.15,.16-.23,13.09-18.71,30.39-34.92,50.74-47.66,38.87-25.12,97.82-45.45,186.99-46.79C341.75,4.44,315.34,0,287.75,0Z"/>
      <path class="cls-1" d="M127.86,107.7c-19.86,28.18-23.07,51.66-23.07,51.66,4.3-18.56,12.21-35.98,23.07-51.66Z"/>
    </g>
  </g>
</svg>